<?xml version="1.0" encoding="utf-8"?>
<!-- Generator: Adobe Illustrator 28.3.0, SVG Export Plug-In . SVG Version: 6.00 Build 0)  -->
<svg version="1.1" id="Svg1" xmlns="http://www.w3.org/2000/svg" xmlns:xlink="http://www.w3.org/1999/xlink" x="0px" y="0px"
	 viewBox="0 0 137.7 236.1" style="enable-background:new 0 0 137.7 236.1;" xml:space="preserve">
<style type="text/css">
	.Svg1_st0{fill:url(#Svg1_SVGID_1_);}
	.Svg1_st1{fill:#D3D3D3;}
	.Svg1_st2{fill:#E0E0E0;}
	.Svg1_st3{fill:#848484;}
	.Svg1_st4{fill:none;stroke:#49323B;stroke-miterlimit:10;}
	.Svg1_st5{fill:#F2F2F2;}
	.Svg1_st6{fill:url(#Svg1_SVGID_00000136382127268408696220000011979274015042925214_);}
	.Svg1_st7{fill:#CCCCCC;}
	.Svg1_st8{fill:#C6C6C6;}
	.Svg1_st9{fill:#FFFFFF;stroke:#FFFFFF;stroke-width:0.75;stroke-miterlimit:10;}
	.Svg1_st10{fill:#E5E5E5;}
	.Svg1_st11{fill:#707070;stroke:#FFFFFF;stroke-width:0.5;stroke-miterlimit:10;}
	.Svg1_st12{fill:none;}
	.Svg1_st13{fill:#80826D;}
	.Svg1_st14{fill:none;stroke:#83FF78;stroke-linecap:round;stroke-linejoin:round;stroke-miterlimit:10;}
	.Svg1_st15{fill:#595959;stroke:#FFFFFF;stroke-width:0.75;stroke-miterlimit:10;}
	.Svg1_st16{fill:url(#Svg1_SVGID_00000043430507303469601680000000011408201755134125_);}
	.Svg1_st17{fill:#C6CCE9;}
	.Svg1_st18{fill:none;stroke:#FFFFFF;stroke-width:1.5;stroke-linecap:round;stroke-linejoin:round;stroke-miterlimit:10;}
	.Svg1_st19{fill:#79AF74;}
	.Svg1_st20{fill:#B9EFB1;}
	.Svg1_st21{fill:none;stroke:#FFFFFF;stroke-width:0.5;stroke-miterlimit:10;}
</style>
<g id="Svg1_KlorTankSol">
	
		<linearGradient id="Svg1_SVGID_1_" gradientUnits="userSpaceOnUse" x1="0.3" y1="-125.9878" x2="137.7" y2="-125.9878" gradientTransform="matrix(1 0 0 1 0 286)">
		<stop  offset="3.189656e-02" style="stop-color:#777A7A"/>
		<stop  offset="0.311" style="stop-color:#BDBDBD"/>
		<stop  offset="0.929" style="stop-color:#777A7A"/>
	</linearGradient>
	<path class="Svg1_st0" d="M0.3,84.5v139.1c0,6.6,30.8,11.9,68.7,11.9c37.9,0,68.7-5.3,68.7-11.9V84.5H0.3z"/>
	<path class="Svg1_st1" d="M137.7,84.5c0-6.6-30.8-11.9-68.7-11.9c-37.9,0-68.7,5.3-68.7,11.9l0,0H137.7L137.7,84.5z"/>
	<path class="Svg1_st2" d="M69,115.2c37.9,0,68.7-5.3,68.7-11.9H0.3C0.3,109.9,31,115.2,69,115.2z"/>
	<rect x="21.1" y="77" class="Svg1_st3" width="17.3" height="2.5"/>
	<path class="Svg1_st4" d="M36.3,56.4"/>
	<path class="Svg1_st4" d="M23,56.4"/>
	<ellipse class="Svg1_st3" cx="29.7" cy="79.5" rx="8.6" ry="1.9"/>
	<ellipse class="Svg1_st5" cx="29.7" cy="77" rx="8.6" ry="1.9"/>
	
		<linearGradient id="Svg1_SVGID_00000025410179019486741660000002270433220669271731_" gradientUnits="userSpaceOnUse" x1="92.3001" y1="479.1984" x2="92.3001" y2="413.2639" gradientTransform="matrix(1 0 0 -1 0 522)">
		<stop  offset="0.4668" style="stop-color:#000000"/>
		<stop  offset="0.6712" style="stop-color:#00B019"/>
	</linearGradient>
	<path style="fill:url(#Svg1_SVGID_00000025410179019486741660000002270433220669271731_);" d="M110.9,80.9H73.7c-5,0-9.1-4.1-9.1-9.1
		v-14c0-5,4.1-9.1,9.1-9.1h37.2c5,0,9.1,4.1,9.1,9.1v14C120,76.9,115.9,80.9,110.9,80.9z"/>
	<path class="Svg1_st7" d="M119.5,74.2H65V58.3c0-5,4.1-9.1,9.1-9.1h36.3c5,0,9.1,4.1,9.1,9.1V74.2z"/>
	<path class="Svg1_st8" d="M62.3,69.5L62.3,69.5c-1.2,0-2.2-1-2.2-2.2V56.1c0-1.2,1-2.2,2.2-2.2l0,0c1.2,0,2.2,1,2.2,2.2v11.2
		C64.5,68.5,63.5,69.5,62.3,69.5z"/>
	<path class="Svg1_st9" d="M64,55.9h-3.3c-0.3,0-0.5-0.2-0.5-0.5v-1.8c0-0.3,0.2-0.5,0.5-0.5H64c0.3,0,0.5,0.2,0.5,0.5v1.8
		C64.4,55.7,64.2,55.9,64,55.9z"/>
	<rect x="94.9" y="53" class="Svg1_st10" width="18.7" height="7.9"/>
	<circle class="Svg1_st11" cx="105.1" cy="64.8" r="1.4"/>
	<circle class="Svg1_st11" cx="111.2" cy="64.8" r="1.4"/>
	<circle class="Svg1_st11" cx="105.1" cy="69.5" r="1.4"/>
	<circle class="Svg1_st11" cx="111.2" cy="69.5" r="1.4"/>
	<g>
		<line class="Svg1_st12" x1="91.2" y1="49.2" x2="91.2" y2="74.2"/>
		<path class="Svg1_st13" d="M91.2,49.2c0.1,4.2,0.3,8.4,0.3,12.5c0.1,4.1,0.4,8.6-0.4,12.5c-0.5-4.2-0.5-8.3-0.4-12.5
			C91,57.6,90.8,53.1,91.2,49.2L91.2,49.2z"/>
	</g>
	<path class="Svg1_st14" d="M62.3,53c0,0,18.1-45.3,2.7-50.8c-8.1-2.9-15.5-1.6-15.5,9.6"/>
	<path class="Svg1_st9" d="M93.2,94.4h-1.8c-0.4,0-0.7-0.3-0.7-0.7v-0.6c0-0.4,0.3-0.7,0.7-0.7h1.8c0.4,0,0.7,0.3,0.7,0.7v0.6
		C94,94.1,93.7,94.4,93.2,94.4z"/>
	<path class="Svg1_st15" d="M53.8,19.2H45c-0.4,0-0.7-0.3-0.7-0.7v-5.1c0-0.4,0.3-0.7,0.7-0.7h8.8c0.4,0,0.7,0.3,0.7,0.7v5.1
		C54.6,18.9,54.3,19.2,53.8,19.2z"/>
	
		<linearGradient id="Svg1_SVGID_00000085950750577679749080000008025427584906926755_" gradientUnits="userSpaceOnUse" x1="0" y1="-192.0378" x2="137.7" y2="-192.0378" gradientTransform="matrix(1 0 0 1 0 286)">
		<stop  offset="3.189656e-02" style="stop-color:#777A7A"/>
		<stop  offset="0.929" style="stop-color:#777A7A"/>
	</linearGradient>
	<rect y="84.7" style="fill:url(#Svg1_SVGID_00000085950750577679749080000008025427584906926755_);" width="137.7" height="18.5"/>
	<path class="Svg1_st17" d="M99.5,107.5H84.8v-9.4c0-2.9,2.4-5.3,5.3-5.3h4.1c2.9,0,5.3,2.4,5.3,5.3L99.5,107.5L99.5,107.5z"/>
	<ellipse class="Svg1_st17" cx="92.1" cy="107.8" rx="7.3" ry="1.9"/>
	<path class="Svg1_st18" d="M111.3,70.1c0,0,7.3,13,1.8,14.3c-12.8,3.1-20.8,0-20.8,9.3"/>
	<g>
		<path class="Svg1_st19" d="M29.7,104.2v6.1c0,1.4,7,2.6,15.6,2.6s15.6-1.1,15.6-2.6v-6.1H29.7z"/>
		<ellipse class="Svg1_st20" cx="45.3" cy="104.1" rx="15.6" ry="2.6"/>
	</g>
	<line class="Svg1_st21" x1="31.6" y1="105" x2="31.6" y2="110.5"/>
	<line class="Svg1_st21" x1="35.6" y1="106" x2="35.6" y2="111.5"/>
	<line class="Svg1_st21" x1="40.7" y1="107" x2="40.7" y2="112.5"/>
	<line class="Svg1_st21" x1="59.7" y1="104.8" x2="59.7" y2="110.2"/>
	<line class="Svg1_st21" x1="55.2" y1="105.8" x2="55.2" y2="111.2"/>
	<line class="Svg1_st21" x1="49.2" y1="106.8" x2="49.2" y2="112.2"/>
	<line class="Svg1_st21" x1="44.9" y1="107" x2="44.9" y2="112.5"/>
</g>
</svg>
