<?xml version="1.0" encoding="utf-8"?>
<!-- Generator: Adobe Illustrator 28.3.0, SVG Export Plug-In . SVG Version: 6.00 Build 0)  -->
<svg version="1.1" id="Svg13" xmlns="http://www.w3.org/2000/svg" xmlns:xlink="http://www.w3.org/1999/xlink" x="0px" y="0px"
	 viewBox="0 0 59.9 48.2" style="enable-background:new 0 0 59.9 48.2;" xml:space="preserve">
<style type="text/css">
	.Svg13_st0{fill:url(#Svg13_SVGID_1_);}
	.Svg13_st1{fill:#CDCDCD;}
	.Svg13_st2{fill:#4D4D4D;}
</style>
<g>
	<g>
		<g>
			
				<linearGradient id="Svg13_SVGID_1_" gradientUnits="userSpaceOnUse" x1="29.9262" y1="538.1918" x2="29.9262" y2="507.3966" gradientTransform="matrix(1 0 0 1 0 -503.8)">
				<stop  offset="0" style="stop-color:#B7B7B7"/>
				<stop  offset="0.3689" style="stop-color:#D5D5D5"/>
				<stop  offset="0.6318" style="stop-color:#E6E6E6"/>
				<stop  offset="0.7618" style="stop-color:#E3E3E3"/>
				<stop  offset="0.8744" style="stop-color:#D8D8D8"/>
				<stop  offset="0.9803" style="stop-color:#C6C6C6"/>
				<stop  offset="1" style="stop-color:#C2C2C2"/>
			</linearGradient>
			<polygon class="Svg13_st0" points="13,24.3 13,3.7 46.8,3.7 46.8,24.3 40.3,24.3 40.3,34.6 19.7,34.6 19.7,24.3 			"/>
		</g>
		<g>
			<g>
				<g>
					<path class="Svg13_st1" d="M41.6,42.1H18.2c-0.8,0-1.3,0.7-1.3,1.3v2.4c0,0.7,0.7,1.3,1.3,1.3h23.4c0.8,0,1.3-0.7,1.3-1.3v-2.4
						C42.9,42.5,42.3,42.1,41.6,42.1z"/>
				</g>
			</g>
			<g>
				<g>
					<path class="Svg13_st1" d="M41.6,34.4H18.2c-0.8,0-1.3,0.7-1.3,1.3v2.4c0,0.7,0.7,1.3,1.3,1.3h23.4c0.8,0,1.3-0.7,1.3-1.3v-2.4
						C42.9,35.1,42.3,34.6,41.6,34.4z"/>
				</g>
			</g>
			<rect x="18.4" y="39.5" class="Svg13_st2" width="23.3" height="2.6"/>
		</g>
		<g>
			<g>
				<g>
					<path class="Svg13_st1" d="M5.5,25.6V2.2c0-0.7-0.7-1.3-1.3-1.3H1.8C1,0.9,0.5,1.6,0.5,2.2v23.4c0,0.7,0.7,1.3,1.3,1.3h2.4
						C4.9,26.9,5.5,26.4,5.5,25.6z"/>
				</g>
			</g>
			<g>
				<g>
					<path class="Svg13_st1" d="M13.2,25.6V2.2c0-0.7-0.7-1.3-1.3-1.3H9.4c-0.8,0-1.3,0.7-1.3,1.3v23.4c0,0.7,0.7,1.3,1.3,1.3h2.4
						C12.7,26.9,13,26.4,13.2,25.6z"/>
				</g>
			</g>
			<rect x="5.5" y="2.4" class="Svg13_st2" width="2.6" height="23.3"/>
		</g>
		<g>
			<g>
				<g>
					<path class="Svg13_st1" d="M51.9,25.6V2.2c0-0.7-0.7-1.3-1.3-1.3h-2.4c-0.8,0-1.3,0.7-1.3,1.3v23.4c0,0.7,0.7,1.3,1.3,1.3h2.4
						C51.2,26.9,51.7,26.4,51.9,25.6z"/>
				</g>
			</g>
			<g>
				<g>
					<path class="Svg13_st1" d="M59.5,25.6V2.2c0-0.7-0.7-1.3-1.3-1.3h-2.4c-0.8,0-1.3,0.7-1.3,1.3v23.4c0,0.7,0.7,1.3,1.3,1.3h2.4
						C58.7,26.9,59.4,26.4,59.5,25.6z"/>
				</g>
			</g>
			<rect x="51.7" y="2.4" class="Svg13_st2" width="2.6" height="23.3"/>
		</g>
	</g>
</g>
</svg>
