<?xml version="1.0" encoding="utf-8"?>
<!-- Generator: Adobe Illustrator 28.3.0, SVG Export Plug-In . SVG Version: 6.00 Build 0)  -->
<svg version="1.1" id="Svg14" xmlns="http://www.w3.org/2000/svg" xmlns:xlink="http://www.w3.org/1999/xlink" x="0px" y="0px"
	 viewBox="0 0 59.9 58.7" style="enable-background:new 0 0 59.9 58.7;" xml:space="preserve">
<style type="text/css">
	.Svg14_st0{fill:#CDCDCD;}
	.Svg14_st1{fill:#4D4D4D;}
	.Svg14_st2{fill:url(#Svg14_SVGID_1_);}
</style>
<g id="Svg14_Dirsek">
	<g>
		<g>
			<g>
				<g>
					<g>
						<path class="Svg14_st0" d="M19.7,53.8h20.2c0.6,0,1.1,0.6,1.1,1.1V57c0,0.7-0.6,1.1-1.1,1.1H19.8c-0.6,0-1.1-0.6-1.1-1.1v-2.1
							C18.7,54.4,19.1,54,19.7,53.8z"/>
					</g>
				</g>
				<g>
					<g>
						<path class="Svg14_st0" d="M19.7,47.4h20.2c0.6,0,1.1,0.6,1.1,1.1v2.1c0,0.7-0.6,1.1-1.1,1.1H19.8c-0.6,0-1.1-0.6-1.1-1.1v-2.1
							C18.7,48,19.1,47.5,19.7,47.4z"/>
					</g>
				</g>
				<rect x="19.8" y="51.7" class="Svg14_st1" width="19.8" height="2.2"/>
			</g>
		</g>
		<g>
			<g>
				<g>
					<g>
						<path class="Svg14_st0" d="M7.1,39.2V19.1c0-0.7,0.6-1.1,1.1-1.1h2.1c0.6,0,1.1,0.6,1.1,1.1v20.1c0,0.7-0.6,1.1-1.1,1.1H8.2
							C7.7,40.3,7.1,39.7,7.1,39.2z"/>
					</g>
				</g>
				<g>
					<g>
						<path class="Svg14_st0" d="M0.7,39.2V19.1c0-0.7,0.6-1.1,1.1-1.1h2.1C4.5,18,5,18.6,5,19.1v20.1c0,0.7-0.6,1.1-1.1,1.1H1.8
							C1.3,40.3,0.7,39.7,0.7,39.2z"/>
					</g>
				</g>
				<rect x="5" y="19.2" class="Svg14_st1" width="2.2" height="19.8"/>
			</g>
		</g>
	</g>
	<g>
		<g>
			<g>
				<g>
					<g>
						<path class="Svg14_st0" d="M39.1,5H18.9c-0.6,0-1.1-0.6-1.1-1.1V1.8c0-0.7,0.6-1.1,1.1-1.1H39c0.6,0,1.1,0.6,1.1,1.1v2.1
							C40.1,4.5,39.7,4.9,39.1,5z"/>
					</g>
				</g>
				<g>
					<g>
						<path class="Svg14_st0" d="M39.1,11.5H18.9c-0.6,0-1.1-0.6-1.1-1.1V8.3c0-0.7,0.6-1.1,1.1-1.1H39c0.6,0,1.1,0.6,1.1,1.1v2.1
							C40.1,10.9,39.7,11.3,39.1,11.5z"/>
					</g>
				</g>
				<rect x="19.2" y="4.9" class="Svg14_st1" width="19.8" height="2.2"/>
			</g>
		</g>
		<g>
			<g>
				<g>
					<g>
						<path class="Svg14_st0" d="M51.7,19.7v20.1c0,0.7-0.6,1.1-1.1,1.1h-2.1c-0.6,0-1.1-0.6-1.1-1.1V19.7c0-0.7,0.6-1.1,1.1-1.1h2.1
							C51.1,18.6,51.7,19.1,51.7,19.7z"/>
					</g>
				</g>
				<g>
					<g>
						<path class="Svg14_st0" d="M58.1,19.7v20.1c0,0.7-0.6,1.1-1.1,1.1h-2.1c-0.6,0-1.1-0.6-1.1-1.1V19.7c0-0.7,0.6-1.1,1.1-1.1H57
							C57.6,18.6,58.1,19.1,58.1,19.7z"/>
					</g>
				</g>
				<rect x="51.5" y="19.8" class="Svg14_st1" width="2.2" height="19.8"/>
			</g>
		</g>
	</g>
	
		<radialGradient id="Svg14_SVGID_1_" cx="125.0429" cy="494.8175" r="71.205" fx="119.7375" fy="494.6587" gradientTransform="matrix(0.6783 -0.7348 -0.9785 -0.9033 406.3455 557.3254)" gradientUnits="userSpaceOnUse">
		<stop  offset="0.1581" style="stop-color:#BABABA"/>
		<stop  offset="0.2997" style="stop-color:#FFFFFF"/>
		<stop  offset="0.5364" style="stop-color:#A1A1A1"/>
		<stop  offset="0.8744" style="stop-color:#D8D8D8"/>
		<stop  offset="0.9803" style="stop-color:#C6C6C6"/>
		<stop  offset="1" style="stop-color:#C2C2C2"/>
	</radialGradient>
	<path class="Svg14_st2" d="M45,20.6c-3.6,0-6.7-2.9-6.7-6.7v-2.8H20.7v2.8c0,7.6-9.2,6.5-9.2,6.5v17.8h3.9c2.7,0.5,4.9,2.5,5.5,5.3v4.1
		h17.8c0,0-1.4-9.1,6.4-9.4h2.8V20.6L45,20.6L45,20.6z"/>
</g>
</svg>
