<?xml version="1.0" encoding="utf-8"?>
<!-- Generator: Adobe Illustrator 28.3.0, SVG Export Plug-In . SVG Version: 6.00 Build 0)  -->
<svg version="1.1" id="Svg15" xmlns="http://www.w3.org/2000/svg" xmlns:xlink="http://www.w3.org/1999/xlink" x="0px" y="0px"
	 viewBox="0 0 52.9 51.5" style="enable-background:new 0 0 52.9 51.5;" xml:space="preserve">
<style type="text/css">
	.Svg15_st0{fill:#CDCDCD;}
	.Svg15_st1{fill:#4D4D4D;}
	.Svg15_st2{fill:url(#Svg15_Dikey_00000129892654272958266200000009445050363697531821_);}
	.Svg15_st3{fill:url(#Svg15_SVGID_1_);}
	.Svg15_st4{fill:url(#Svg15_SVGID_00000178908856379132554340000003943728026091233429_);}
</style>
<g>
	<g>
		<g>
			<path class="Svg15_st0" d="M47.5,36V15.6c0-0.5,0.6-1.1,1.3-1.1h2.3c0.7,0,1.3,0.5,1.3,1.1v20.3c0,0.5-0.6,1.1-1.3,1.1h-2.3
				C48.1,36.9,47.7,36.4,47.5,36z"/>
		</g>
	</g>
	<g>
		<g>
			<path class="Svg15_st0" d="M40.3,36V15.6c0-0.5,0.6-1.1,1.3-1.1h2.3c0.7,0,1.3,0.5,1.3,1.1v20.3c0,0.5-0.6,1.1-1.3,1.1h-2.3
				C40.9,36.9,40.4,36.4,40.3,36z"/>
		</g>
	</g>
	<rect x="45.2" y="15.8" class="Svg15_st1" width="2.6" height="20"/>
</g>
<g>
	
		<linearGradient id="Svg15_Dikey_00000109023880326777288580000005574206499051312027_" gradientUnits="userSpaceOnUse" x1="7576.8984" y1="654.554" x2="7576.8984" y2="671.9099" gradientTransform="matrix(1 0 0 1 -7556.2417 -637.5205)">
		<stop  offset="9.525904e-02" style="stop-color:#B7B7B7"/>
		<stop  offset="0.4426" style="stop-color:#F2F2F2"/>
		<stop  offset="0.888" style="stop-color:#858585"/>
	</linearGradient>
	
		<rect id="Svg15_Dikey_00000161624979560235546560000015945074981461944508_" x="1.1" y="17" style="fill:url(#Svg15_Dikey_00000109023880326777288580000005574206499051312027_);" width="39.2" height="17.5"/>
	
		<linearGradient id="Svg15_SVGID_1_" gradientUnits="userSpaceOnUse" x1="3769.9778" y1="-2772.4753" x2="3693.4614" y2="-2743.4062" gradientTransform="matrix(0 1 -1 0 -2733.385 -3658.8064)">
		<stop  offset="9.525904e-02" style="stop-color:#B7B7B7"/>
		<stop  offset="0.4426" style="stop-color:#F2F2F2"/>
		<stop  offset="0.8936" style="stop-color:#858585"/>
	</linearGradient>
	<path class="Svg15_st3" d="M1.1,51c0-8.8,10.9-16,24.1-16.3v-0.1H1.1V51z"/>
	
		<linearGradient id="Svg15_SVGID_00000149342806374128001320000011397064196881590934_" gradientUnits="userSpaceOnUse" x1="3575.3977" y1="-2772.4692" x2="3498.8813" y2="-2743.4001" gradientTransform="matrix(0 -1 -1 0 -2733.385 3515.8943)">
		<stop  offset="9.525904e-02" style="stop-color:#B7B7B7"/>
		<stop  offset="0.4426" style="stop-color:#F2F2F2"/>
		<stop  offset="0.888" style="stop-color:#858585"/>
	</linearGradient>
	<path style="fill:url(#Svg15_SVGID_00000149342806374128001320000011397064196881590934_);" d="M1.1,0.7c0,8.8,10.9,16,24.1,16.3v0.1H1.1
		V0.7z"/>
</g>
</svg>
