<?xml version="1.0" encoding="utf-8"?>
<!-- Generator: Adobe Illustrator 28.3.0, SVG Export Plug-In . SVG Version: 6.00 Build 0)  -->
<svg version="1.1" id="Svg16" xmlns="http://www.w3.org/2000/svg" xmlns:xlink="http://www.w3.org/1999/xlink" x="0px" y="0px"
	 viewBox="0 0 14.2 24.4" style="enable-background:new 0 0 14.2 24.4;" xml:space="preserve">
<style type="text/css">
	.Svg16_st0{fill:#CDCDCD;}
	.Svg16_st1{fill:#4D4D4D;}
</style>
<g>
	<g>
		<g>
			<path class="Svg16_st0" d="M8.2,22.3V1.9c0-0.5,0.6-1.1,1.3-1.1h2.3c0.7,0,1.3,0.5,1.3,1.1v20.3c0,0.5-0.6,1.1-1.3,1.1H9.5
				C8.8,23.3,8.4,22.8,8.2,22.3z"/>
		</g>
	</g>
	<g>
		<g>
			<path class="Svg16_st0" d="M0.9,22.3V1.9c0-0.5,0.6-1.1,1.3-1.1h2.3c0.7,0,1.3,0.5,1.3,1.1v20.3c0,0.5-0.6,1.1-1.3,1.1H2.2
				C1.6,23.3,1.1,22.8,0.9,22.3z"/>
		</g>
	</g>
	<rect x="5.8" y="2.1" class="Svg16_st1" width="2.6" height="20"/>
</g>
</svg>
