<?xml version="1.0" encoding="utf-8"?>
<!-- Generator: Adobe Illustrator 28.3.0, SVG Export Plug-In . SVG Version: 6.00 Build 0)  -->
<svg version="1.1" id="Svg19" xmlns="http://www.w3.org/2000/svg" xmlns:xlink="http://www.w3.org/1999/xlink" x="0px" y="0px"
	 viewBox="0 0 50.4 47.1" style="enable-background:new 0 0 50.4 47.1;" xml:space="preserve">
<style type="text/css">
	.Svg19_st0{fill:url(#Svg19_SVGID_1_);}
	.Svg19_st1{fill:#CDCDCD;}
	.Svg19_st2{fill:#4D4D4D;}
</style>
<g>
	<g>
		
			<radialGradient id="Svg19_SVGID_1_" cx="9269.3096" cy="919.9308" r="48.3863" fx="9265.7051" fy="919.823" gradientTransform="matrix(-0.7348 -0.6046 -0.9033 0.8721 7673.5254 4831.0996)" gradientUnits="userSpaceOnUse">
			<stop  offset="0.1581" style="stop-color:#BABABA"/>
			<stop  offset="0.2997" style="stop-color:#FFFFFF"/>
			<stop  offset="0.5364" style="stop-color:#A1A1A1"/>
			<stop  offset="0.8744" style="stop-color:#D8D8D8"/>
			<stop  offset="0.9803" style="stop-color:#C6C6C6"/>
			<stop  offset="1" style="stop-color:#C2C2C2"/>
		</radialGradient>
		<path class="Svg19_st0" d="M38.2,3v22.6l-3.5,0.1c-4.8,0-8.4,2.4-8.4,6.6v3.1H4v-3.1C4,17.1,17.8,3.5,34.8,3.5h3.4V3z"/>
	</g>
	<g>
		<g>
			<path class="Svg19_st1" d="M27.3,39.7H2.2c-0.9,0-1.3-0.6-1.3-1.3v-2.3c0-0.6,0.6-1.3,1.3-1.3h25.1c0.9,0,1.3,0.6,1.3,1.3v2.3
				C28.7,39.2,27.9,39.7,27.3,39.7z"/>
		</g>
	</g>
	<g>
		<g>
			<path class="Svg19_st1" d="M27.3,46.9H2.2c-0.9,0-1.3-0.6-1.3-1.3v-2.3c0-0.6,0.6-1.3,1.3-1.3h25.1c0.9,0,1.3,0.6,1.3,1.3v2.3
				C28.7,46.3,27.9,46.9,27.3,46.9z"/>
		</g>
	</g>
	<rect x="2.3" y="39.7" class="Svg19_st2" width="24.8" height="2.4"/>
	<g>
		<g>
			<path class="Svg19_st1" d="M42.2,2.1v25.1c0,0.9-0.6,1.3-1.3,1.3h-2.3c-0.6,0-1.3-0.6-1.3-1.3V2.1c0-0.9,0.6-1.3,1.3-1.3h2.3
				C41.7,0.7,42.2,1.5,42.2,2.1z"/>
		</g>
	</g>
	<g>
		<g>
			<path class="Svg19_st1" d="M49.4,2.1v25.1c0,0.9-0.6,1.3-1.3,1.3h-2.3c-0.6,0-1.3-0.6-1.3-1.3V2.1c0-0.9,0.6-1.3,1.3-1.3h2.3
				C48.8,0.7,49.4,1.5,49.4,2.1z"/>
		</g>
	</g>
	<rect x="42.2" y="2.3" class="Svg19_st2" width="2.4" height="24.8"/>
</g>
</svg>
