<?xml version="1.0" encoding="utf-8"?>
<!-- Generator: Adobe Illustrator 28.3.0, SVG Export Plug-In . SVG Version: 6.00 Build 0)  -->
<svg version="1.1" id="Svg20" xmlns="http://www.w3.org/2000/svg" xmlns:xlink="http://www.w3.org/1999/xlink" x="0px" y="0px"
	 viewBox="0 0 38.7 22.9" style="enable-background:new 0 0 38.7 22.9;" xml:space="preserve">
<style type="text/css">
	.Svg20_st0{fill:url(#Svg20_SVGID_1_);}
	.Svg20_st1{fill:url(#Svg20_SVGID_00000116947760527474178670000014376686416189848748_);}
	.Svg20_st2{fill:url(#Svg20_SVGID_00000030476740306770560550000011644887329335417735_);}
	.Svg20_st3{fill:url(#Svg20_SVGID_00000106859145729104871330000013925807999184243344_);}
	.Svg20_st4{fill:url(#Svg20_SVGID_00000004515158909217918260000017746005333306231742_);}
</style>
<g>
	
		<linearGradient id="Svg20_SVGID_1_" gradientUnits="userSpaceOnUse" x1="0.826" y1="-52.7596" x2="37.7733" y2="-52.7596" gradientTransform="matrix(1 0 0 1 0 67.59)">
		<stop  offset="6.120138e-02" style="stop-color:#858585"/>
		<stop  offset="0.3477" style="stop-color:#F2F2F2"/>
		<stop  offset="0.5808" style="stop-color:#858585"/>
		<stop  offset="0.8073" style="stop-color:#4D4D4D"/>
	</linearGradient>
	<path class="Svg20_st0" d="M37.9,7.6l-18,3.4l-19-3.4v6.9l0,0c0,0.1,0,0.2,0,0.2c0,0.1,0,0.3,0,0.4l0,0l0,0C1.5,19,9.5,22,19.3,22
		c9.8,0,17.8-3.1,18.4-6.9l0,0L37.9,7.6L37.9,7.6z"/>
	
		<radialGradient id="Svg20_SVGID_00000019655191284906908040000015097128663611269794_" cx="21.8794" cy="-63.1138" r="17.0619" gradientTransform="matrix(1 0 0 1 0 67.59)" gradientUnits="userSpaceOnUse">
		<stop  offset="0.3919" style="stop-color:#ADADAD"/>
		<stop  offset="0.7372" style="stop-color:#858585"/>
	</radialGradient>
	<path style="fill:url(#Svg20_SVGID_00000019655191284906908040000015097128663611269794_);" d="M37.8,7.3L37.8,7.3
		c-0.2-2.7-4.1-5-9.7-6.3l0.1,6.1c0,0.1,0,0.1,0,0.2c-0.3,1.6-4.1,2.8-8.8,2.8s-8.5-1.3-8.8-2.9l0,0c0-0.1,0-0.1,0-0.2V1
		C5,2.2,1.2,4.5,0.9,7.2l0,0c0,0.1,0,0.2,0,0.2c0,4.1,8.3,7.4,18.5,7.4s18.5-3.3,18.5-7.4C37.9,7.4,37.8,7.4,37.8,7.3z"/>
	<g>
		
			<linearGradient id="Svg20_SVGID_00000087373508815228023190000011189300787984727437_" gradientUnits="userSpaceOnUse" x1="16.9442" y1="-55.2096" x2="22.2768" y2="-55.2096" gradientTransform="matrix(1 0 0 1 0 67.59)">
			<stop  offset="9.525904e-02" style="stop-color:#B7B7B7"/>
			<stop  offset="0.4426" style="stop-color:#F2F2F2"/>
			<stop  offset="0.888" style="stop-color:#858585"/>
		</linearGradient>
		<path style="fill:url(#Svg20_SVGID_00000087373508815228023190000011189300787984727437_);" d="M22.3,12.9c0-1-1.2-1.8-2.7-1.8
			s-2.7,0.8-2.7,1.8l0,0l0,0c0.1,0.4,1.2,0.7,2.7,0.7C21,13.6,22.1,13.3,22.3,12.9C22.3,13.1,22.4,13,22.3,12.9
			C22.3,13,22.3,13,22.3,12.9z"/>
		
			<linearGradient id="Svg20_SVGID_00000056409902974125229320000011955956106775806869_" gradientUnits="userSpaceOnUse" x1="3.7511" y1="-61.4096" x2="9.0839" y2="-61.4096" gradientTransform="matrix(1 0 0 1 0 67.59)">
			<stop  offset="9.525904e-02" style="stop-color:#B7B7B7"/>
			<stop  offset="0.4426" style="stop-color:#F2F2F2"/>
			<stop  offset="0.888" style="stop-color:#858585"/>
		</linearGradient>
		<path style="fill:url(#Svg20_SVGID_00000056409902974125229320000011955956106775806869_);" d="M9.2,6.7c0-1-1.2-1.8-2.7-1.8
			S3.8,5.7,3.8,6.7l0,0l0,0C3.9,7.1,5,7.4,6.5,7.4C7.9,7.4,9,7.1,9.2,6.7C9.2,6.9,9.2,6.8,9.2,6.7C9.2,6.8,9.2,6.7,9.2,6.7z"/>
		
			<linearGradient id="Svg20_SVGID_00000097458563770445269660000008588853907660228014_" gradientUnits="userSpaceOnUse" x1="30.2981" y1="-61.4096" x2="35.6309" y2="-61.4096" gradientTransform="matrix(1 0 0 1 0 67.59)">
			<stop  offset="9.525904e-02" style="stop-color:#B7B7B7"/>
			<stop  offset="0.4426" style="stop-color:#F2F2F2"/>
			<stop  offset="0.888" style="stop-color:#858585"/>
		</linearGradient>
		<path style="fill:url(#Svg20_SVGID_00000097458563770445269660000008588853907660228014_);" d="M35.7,6.7c0-1-1.2-1.8-2.7-1.8
			c-1.5,0-2.7,0.8-2.7,1.8l0,0l0,0c0.1,0.4,1.2,0.7,2.7,0.7C34.4,7.4,35.5,7.1,35.7,6.7C35.7,6.9,35.7,6.8,35.7,6.7
			C35.7,6.8,35.7,6.7,35.7,6.7z"/>
	</g>
</g>
</svg>
