<?xml version="1.0" encoding="utf-8"?>
<!-- Generator: Adobe Illustrator 28.3.0, SVG Export Plug-In . SVG Version: 6.00 Build 0)  -->
<svg version="1.1" id="Svg21" xmlns="http://www.w3.org/2000/svg" xmlns:xlink="http://www.w3.org/1999/xlink" x="0px" y="0px"
	 viewBox="0 0 50.2 81.6" style="enable-background:new 0 0 50.2 81.6;" xml:space="preserve">
<style type="text/css">
	.Svg21_st0{fill:#CDCDCD;}
	.Svg21_st1{fill:#4D4D4D;}
	.Svg21_st2{fill:#E6E6E6;}
	.Svg21_st3{fill:#E94039;}
</style>
<g id="Svg21_vana">
	<g>
		<g>
			<g>
				<g>
					<g>
						<path class="Svg21_st0" d="M43.4,75.6V79c0,0.9-0.9,1.8-1.8,1.8H9c-0.9,0-1.8-0.7-1.8-1.8v-3.4c0-0.9,0.9-1.8,1.8-1.8h32.9
							C42.7,73.8,43.4,74.7,43.4,75.6z"/>
					</g>
				</g>
				<g>
					<g>
						<path class="Svg21_st0" d="M43.4,65.1v3.4c0,0.9-0.9,1.8-1.8,1.8H9c-0.9,0-1.8-0.7-1.8-1.8v-3.4c0-0.9,0.9-1.8,1.8-1.8h32.9
							C42.7,63.3,43.4,64.2,43.4,65.1z"/>
					</g>
				</g>
				<rect x="8.9" y="70.3" class="Svg21_st1" width="32.6" height="3.7"/>
			</g>
		</g>
		<g>
			<g>
				<g>
					<g>
						<path class="Svg21_st0" d="M43.4,13.1v3.4c0,0.9-0.9,1.8-1.8,1.8H9c-0.9,0-1.8-0.7-1.8-1.8v-3.4c0-0.9,0.9-1.8,1.8-1.8h32.9
							C42.7,11.3,43.4,11.9,43.4,13.1z"/>
					</g>
				</g>
				<g>
					<g>
						<path class="Svg21_st0" d="M43.4,2.4v3.4c0,0.9-0.9,1.8-1.8,1.8H9c-0.9,0-1.8-0.7-1.8-1.8V2.4c0-0.9,0.9-1.8,1.8-1.8h32.9
							C42.7,0.5,43.4,1.5,43.4,2.4z"/>
					</g>
				</g>
				<rect x="8.9" y="7.6" class="Svg21_st1" width="32.6" height="3.7"/>
			</g>
		</g>
		<g>
			<path class="Svg21_st1" d="M41.1,48.7V33h6.4c1.4,0,2.3,1.1,2.3,2.3v11.2c0,1.4-1.1,2.3-2.3,2.3L41.1,48.7L41.1,48.7z"/>
		</g>
		<g>
			<path class="Svg21_st1" d="M9.6,32.7v15.7H3.2c-1.4,0-2.3-1.1-2.3-2.3v-11c0-1.4,1.1-2.3,2.3-2.3L9.6,32.7L9.6,32.7z"/>
		</g>
		<g>
			<rect x="10.7" y="18.1" class="Svg21_st2" width="28.7" height="45.2"/>
		</g>
		<g>
			<ellipse class="Svg21_st0" cx="25.4" cy="40.9" rx="20.1" ry="20.1"/>
			<path class="Svg21_st2" d="M10.3,40.7c0-8.2,6.8-15.1,15.1-15.1c8.2,0,15.1,6.8,15.1,15.1c0,8.2-6.8,15.1-15.1,15.1
				C16.9,55.7,10.3,49.1,10.3,40.7z"/>
		</g>
		<g>
			<circle class="Svg21_st1" cx="25.4" cy="40.7" r="6.8"/>
		</g>
		<g id="Svg21_Act2_00000150073242212255192500000014663562668050395058_">
			<g>
				<path class="Svg21_st3" d="M11.7,40.7c0-7.5,6.2-13.5,13.5-13.5c7.5,0,13.5,6.2,13.5,13.5c0,7.5-6.2,13.5-13.5,13.5
					C17.8,54.4,11.7,48.2,11.7,40.7z M35.6,40.7c0-5.7-4.6-10.3-10.3-10.3S15,35,15,40.7S19.6,51,25.3,51S35.6,46.4,35.6,40.7z"/>
			</g>
			<g>
				<g>
					<g>
						<rect x="13.3" y="39.1" class="Svg21_st3" width="24" height="3.2"/>
					</g>
					<g>
						<path class="Svg21_st3" d="M37.2,44.1c-1.8,0-3.4-1.6-3.4-3.4s1.6-3.4,3.4-3.4s3.4,1.6,3.4,3.4C40.6,42.7,39,44.1,37.2,44.1z"/>
					</g>
					<g>
						<path class="Svg21_st3" d="M13.3,44.1c-1.8,0-3.4-1.6-3.4-3.4s1.6-3.4,3.4-3.4s3.4,1.6,3.4,3.4C16.7,42.7,15.3,44.1,13.3,44.1z"/>
					</g>
				</g>
				<g>
					<g>
						<rect x="23.8" y="28.8" class="Svg21_st3" width="3.2" height="24"/>
					</g>
					<g>
						<circle class="Svg21_st3" cx="25.4" cy="52.8" r="3.4"/>
					</g>
					<g>
						<circle class="Svg21_st3" cx="25.4" cy="28.8" r="3.4"/>
					</g>
				</g>
			</g>
			<g>
				<path class="Svg21_st3" d="M25.4,45c-2.3,0-4.1-1.8-4.1-4.1s1.8-4.1,4.1-4.1s4.1,1.8,4.1,4.1S27.6,45,25.4,45z"/>
			</g>
		</g>
	</g>
</g>
</svg>
