<?xml version="1.0" encoding="utf-8"?>
<!-- Generator: Adobe Illustrator 28.3.0, SVG Export Plug-In . SVG Version: 6.00 Build 0)  -->
<svg version="1.1" id="Svg22" xmlns="http://www.w3.org/2000/svg" xmlns:xlink="http://www.w3.org/1999/xlink" x="0px" y="0px"
	 viewBox="0 0 80 107.9" style="enable-background:new 0 0 80 107.9;" xml:space="preserve">
<style type="text/css">
	.Svg22_st0{fill:#ABAFBA;}
	.Svg22_st1{fill:#D1D3DB;}
	.Svg22_st2{fill:#0D1316;}
	.Svg22_st3{fill:#363F47;}
	.Svg22_st4{fill:#C7D7DD;}
	.Svg22_st5{fill:none;}
	.Svg22_st6{font-family:'FreeSans';}
	.Svg22_st7{font-size:4.5939px;}
</style>
<g>
	<path class="Svg22_st0" d="M67,1.9h-5.2L50.4,36.3l-23.7,0.2L15.9,1.9h-5c-4.4,0-8,3.6-8,8.2v83.2c0,4.5,3.6,8.2,8,8.2h56
		c4.4,0,8-3.6,8-8.2V10.1C75,5.6,71.4,1.9,67,1.9z"/>
	<path class="Svg22_st1" d="M64.9,1.5h-5.2L48.3,35.4l-23.7,0.1l-10.7-34h-5c-4.4,0-8,3.6-8,8v81.9c0,4.4,3.6,8,8,8h56c4.4,0,8-3.6,8-8
		V9.6C73,5.1,69.4,1.5,64.9,1.5z"/>
	<path class="Svg22_st0" d="M60.7,43.5l-0.9-42L14.5,1.4V43c0,5.2,3.2,10,7.4,10l31-0.1C57.1,53.1,60.7,48.7,60.7,43.5z"/>
	<path class="Svg22_st1" d="M59.4,41.7V1.5H13.6v40.2c0,5,3.4,9,7.6,9h30.6C56,50.8,59.4,46.7,59.4,41.7z"/>
	<path class="Svg22_st0" d="M54.6,38.8V16H19.8v22.8c0,2.8,2.6,5.1,5.8,5.1h23.2C52,43.9,54.6,41.6,54.6,38.8z"/>
	<path class="Svg22_st2" d="M53.9,38V16H19.1v22c0,2.7,2.6,5,5.8,5h23.2C51.3,43,53.9,40.8,53.9,38z"/>
	<rect x="22.2" y="18.8" class="Svg22_st3" width="29.2" height="14.5"/>
	<circle class="Svg22_st2" cx="67.3" cy="7.7" r="1.7"/>
	<circle class="Svg22_st2" cx="6.5" cy="7.7" r="1.7"/>
	<circle class="Svg22_st2" cx="67.3" cy="93.9" r="1.7"/>
	<circle class="Svg22_st2" cx="6.5" cy="93.9" r="1.7"/>
	<path class="Svg22_st4" d="M87.4,60.6L87.4,60.6L87.4,60.6L87.4,60.6z"/>
	<path class="Svg22_st4" d="M89.9,58.1C89.9,58.1,89.9,58,89.9,58.1L89.9,58.1L89.9,58.1z"/>
	<path class="Svg22_st2" d="M79.1,4L79.1,4l-1.2,1.8c-0.3,0.5-0.5,1-0.5,1.6v47.9c0,0.8-0.6,1.4-1.4,1.4h-2.1l0,0l0,0
		c-0.1,0-0.3,0.5-0.3,1.1s0.2,1.1,0.3,1.1l0,0l0,0h4.4l0,0c0.4,0,0.8-0.5,0.8-1.1L79.1,4z"/>
	<path class="Svg22_st2" d="M17.8,107.9c2.9-0.2,5.1-2.6,5.1-5.5v-1.9l0,0H12.1l0,0v2C12,105.6,14.7,108.1,17.8,107.9z"/>
	<path class="Svg22_st2" d="M31.3,107.9c2.9-0.2,5.1-2.6,5.1-5.5v-1.9l0,0H25.6l0,0v2C25.6,105.6,28.2,108.1,31.3,107.9z"/>
	<path class="Svg22_st2" d="M45.4,107.9c2.9-0.2,5.1-2.6,5.1-5.5v-1.9l0,0H39.7l0,0v2C39.6,105.6,42.3,108.1,45.4,107.9z"/>
	<path class="Svg22_st2" d="M58.9,107.9c2.9-0.2,5.1-2.6,5.1-5.5v-1.9l0,0H53.2l0,0v2C53.2,105.6,55.8,108.1,58.9,107.9z"/>
	<rect x="24.1" y="45.2" class="Svg22_st5" width="24.8" height="4.6"/>
	<text transform="matrix(1 0 0 1 24.0885 48.4908)" class="Svg22_st6 Svg22_st7">AQUA CNT</text>
</g>
</svg>
