<?xml version="1.0" encoding="utf-8"?>
<!-- Generator: Adobe Illustrator 28.3.0, SVG Export Plug-In . SVG Version: 6.00 Build 0)  -->
<svg version="1.1" id="Svg23" xmlns="http://www.w3.org/2000/svg" xmlns:xlink="http://www.w3.org/1999/xlink" x="0px" y="0px"
	 viewBox="0 0 67.9 106.6" style="enable-background:new 0 0 67.9 106.6;" xml:space="preserve">
<style type="text/css">
	.Svg23_st0{fill:#3D3D3D;}
	.Svg23_st1{fill:url(#Svg23_SVGID_1_);}
	.Svg23_st2{fill:url(#Svg23_SVGID_00000149341774034957359770000003340054581525991094_);}
	.Svg23_st3{fill:url(#Svg23_SVGID_00000044160912623535507310000008541823801532655781_);}
	.Svg23_st4{fill:#5F5F5F;}
	.Svg23_st5{fill:url(#Svg23_SVGID_00000104675057885946349990000009916665098800148389_);}
	.Svg23_st6{fill:url(#Svg23_SVGID_00000036237043680331797460000008015017202755692430_);}
	.Svg23_st7{fill:url(#Svg23_SVGID_00000116928901947101608170000016405686588980894909_);}
	.Svg23_st8{fill:#A5A5A5;}
	.Svg23_st9{fill:#FEFEFE;}
</style>
<g id="Svg23_DefaultDeb">
	<path class="Svg23_st0" d="M8.6,94.5h5.7c0.1,0,0.1-0.1,0.1-0.1v-31c0-0.1-0.1-0.1-0.1-0.1H8.6c-0.1,0-0.1,0.1-0.1,0.1v31
		C8.4,94.5,8.6,94.5,8.6,94.5z"/>
	
		<linearGradient id="Svg23_SVGID_1_" gradientUnits="userSpaceOnUse" x1="2150.7302" y1="474.2837" x2="2160.4375" y2="474.2837" gradientTransform="matrix(-0.7132 0 0 -1.5141 1542.4597 795.8517)">
		<stop  offset="8.379889e-03" style="stop-color:#4C4C4C"/>
		<stop  offset="0.4721" style="stop-color:#818181"/>
		<stop  offset="0.9916" style="stop-color:#4C4C4C"/>
	</linearGradient>
	<path class="Svg23_st1" d="M5.1,105.1L5.1,105.1c2,0,3.4-1.6,3.4-3.4V53.8c0-1.9-1.6-3.4-3.4-3.4l0,0c-1.9,0-3.4,1.6-3.4,3.4v47.9
		C1.7,103.6,3.1,105.1,5.1,105.1z"/>
	<path class="Svg23_st0" d="M58.8,94.5h-5.7c-0.1,0-0.1-0.1-0.1-0.1v-31c0-0.1,0.1-0.1,0.1-0.1h5.7c0.1,0,0.1,0.1,0.1,0.1v31
		C59.1,94.5,59,94.5,58.8,94.5z"/>
	
		<linearGradient id="Svg23_SVGID_00000081636327650641335490000017426487790861508244_" gradientUnits="userSpaceOnUse" x1="-1017.7479" y1="474.2837" x2="-1008.0407" y2="474.2837" gradientTransform="matrix(0.7132 0 0 -1.5141 784.8433 795.8517)">
		<stop  offset="8.379889e-03" style="stop-color:#4C4C4C"/>
		<stop  offset="0.4721" style="stop-color:#818181"/>
		<stop  offset="0.9916" style="stop-color:#4C4C4C"/>
	</linearGradient>
	<path style="fill:url(#Svg23_SVGID_00000081636327650641335490000017426487790861508244_);" d="M62.4,105.1L62.4,105.1
		c-1.9,0-3.4-1.6-3.4-3.4V53.8c0-1.9,1.6-3.4,3.4-3.4l0,0c1.9,0,3.4,1.6,3.4,3.4v47.9C65.9,103.6,64.3,105.1,62.4,105.1z"/>
	
		<linearGradient id="Svg23_SVGID_00000121990818263470161780000008694649424039403694_" gradientUnits="userSpaceOnUse" x1="33.8846" y1="498.2094" x2="33.8846" y2="451.8385" gradientTransform="matrix(1 0 0 -1 0 542.5447)">
		<stop  offset="8.379889e-03" style="stop-color:#4C4C4C"/>
		<stop  offset="0.4721" style="stop-color:#818181"/>
		<stop  offset="0.9916" style="stop-color:#4C4C4C"/>
	</linearGradient>
	<path style="fill:url(#Svg23_SVGID_00000121990818263470161780000008694649424039403694_);" d="M39.3,50.6l-0.1-8.5
		c0-1.5-0.7-2.8-2.1-2.8h-4.9c-1.5,0-3.1,1.2-3.1,2.7v8.4c0,3.6-2.5,6.5-6,6.5H17c-1.5,0-2.7,1.2-2.7,2.7l-1.1,8.2
		c-0.8,6.1-0.8,12.2-0.1,18.3l1.2,9.3c0,1.5,1.2,2.7,2.7,2.7h33.4c1.5,0,2.7-1.2,2.7-2.7l1.1-6.5c1.3-7.7,1.2-15.5,0-23.2l-1.1-6.1
		c0-1.5-1.2-2.7-2.7-2.7h-4.2C42.6,56.9,39.3,54.1,39.3,50.6z"/>
	<path class="Svg23_st4" d="M54.7,23.2C54.7,10.6,43.8,0.7,31,2.1c-9.8,1.1-17.6,9-18.7,18.8c-0.7,5.8,1.1,11.1,4.4,15.4
		c1.7,2.1,2.5,4.8,2.5,7.6v5.6c0,0.1,0,0.1,0.1,0.1h28.8c0.1,0,0.1,0,0.1-0.1v-7.2c0-2.1,0.5-4.2,1.7-6.1
		C51.8,32.9,54.7,27.3,54.7,23.2z"/>
	
		<linearGradient id="Svg23_SVGID_00000083784088781730152990000016397430911923098038_" gradientUnits="userSpaceOnUse" x1="13.5705" y1="519.256" x2="58.9344" y2="519.256" gradientTransform="matrix(1 0 0 -1 0 542.5447)">
		<stop  offset="8.379889e-03" style="stop-color:#4C4C4C"/>
		<stop  offset="0.4721" style="stop-color:#818181"/>
		<stop  offset="0.9916" style="stop-color:#4C4C4C"/>
	</linearGradient>
	<path style="fill:url(#Svg23_SVGID_00000083784088781730152990000016397430911923098038_);" d="M58.4,22.9L58.4,22.9c0,0,0-1.5,0.3-2.1
		c0.1-0.4,0.3-0.9,0.3-1.3c0-2.1-1.7-3.7-3.7-3.7c-0.7,0-1.3,0.3-2,0.5c-0.7,0.4-1.5,0.1-1.7-0.5c-0.4-0.9-0.9-1.7-1.5-2.7
		c-3.4-5.7-9.7-9.4-16.8-9.4c-10.9,0-19.6,8.8-19.6,19.6s8.8,19.6,19.6,19.6c8.5,0,15.8-5.4,18.4-13c0.4-0.4,0.9-0.5,1.5-0.1
		c0.5,0.4,1.2,0.5,2,0.5c2.1,0,3.7-1.7,3.7-3.7c0-0.5-0.1-0.9-0.3-1.3C58.4,24.4,58.4,22.9,58.4,22.9z"/>
	
		<radialGradient id="Svg23_SVGID_00000112628356425125794900000012814089804650527411_" cx="57.6436" cy="523.5972" r="2.7055" gradientTransform="matrix(1 0 0 -1 0 542.5447)" gradientUnits="userSpaceOnUse">
		<stop  offset="1.754705e-02" style="stop-color:#EBEBEB"/>
		<stop  offset="0.4391" style="stop-color:#EBEBEB"/>
		<stop  offset="0.8974" style="stop-color:#ADADAD"/>
	</radialGradient>
	<path style="fill:url(#Svg23_SVGID_00000112628356425125794900000012814089804650527411_);" d="M59.9,18.9c0,1.7-1.3,3.1-3.1,3.1
		s-1.6-1.3-1.6-3.1s-0.1-3.1,1.6-3.1C58.6,15.9,59.9,17.3,59.9,18.9z"/>
	
		<radialGradient id="Svg23_SVGID_00000078020955299139595010000001017806697573760656_" cx="57.6994" cy="515.5684" r="2.7063" gradientTransform="matrix(1 0 0 -1 0 542.5447)" gradientUnits="userSpaceOnUse">
		<stop  offset="1.754705e-02" style="stop-color:#EBEBEB"/>
		<stop  offset="0.4391" style="stop-color:#EBEBEB"/>
		<stop  offset="0.8974" style="stop-color:#ADADAD"/>
	</radialGradient>
	<path style="fill:url(#Svg23_SVGID_00000078020955299139595010000001017806697573760656_);" d="M60,27c0,1.7-1.3,3.1-3.1,3.1
		c-1.7,0-1.6-1.3-1.6-3.1c0-1.7-0.1-3.1,1.6-3.1C58.6,24,60,25.3,60,27z"/>
	<circle class="Svg23_st8" cx="33.2" cy="23" r="18.2"/>
	<path class="Svg23_st9" d="M44.2,23.7H22.4c-0.1,0-0.1,0-0.1-0.1V12.1c0-0.1,0-0.1,0.1-0.1h21.8c0.1,0,0.1,0,0.1,0.1L44.2,23.7
		C44.4,23.7,44.2,23.7,44.2,23.7z"/>
</g>
</svg>
