<svg id="switchSvg" width="800" height="365" viewBox="0 0 800 365" fill="none" xmlns="http://www.w3.org/2000/svg">
<g clip-path="url(#clip0_108_277)">
<path id="green1" d="M500.714 313.259H130.434C58.4922 313.259 0 254.767 0 182.825C0 110.883 58.4922 52.3892 130.434 52.3892H500.714C515.133 52.3892 526.802 64.0563 526.802 78.4767V287.174C526.802 301.592 515.133 313.259 500.714 313.259Z" fill="transparent"/>
<path id="green2" d="M526.802 78.4767C526.802 64.0579 515.134 52.3892 500.714 52.3892H130.434C58.4922 52.3892 0 110.881 0 182.825H526.802V78.4767Z" fill="transparent"/>
<path id="green3" d="M800 182.827C799.984 81.9657 718.256 0.23291 617.39 0.217285C516.53 0.23291 434.8 81.9657 434.784 182.827C434.8 283.688 516.528 365.419 617.39 365.434C718.256 365.419 799.984 283.688 800 182.827Z" fill="transparent"/>
<path id="green4" d="M800 182.827H434.786C434.802 283.688 516.53 365.419 617.392 365.434C718.256 365.419 799.985 283.688 800 182.827Z" fill="transparent"/>
<path id="red1" d="M273.198 286.956V78.2593C273.198 63.8406 284.865 52.1719 299.286 52.1719H669.565C741.508 52.1719 800 110.664 800 182.606C800 254.548 741.508 313.041 669.565 313.041H299.286C284.867 313.044 273.198 301.375 273.198 286.956Z" fill="#FF4B26"/>
<path id="red2" d="M273.198 78.2593C273.198 63.8406 284.865 52.1719 299.286 52.1719H669.565C741.508 52.1719 800 110.664 800 182.606H273.198V78.2593Z" fill="#D93F21"/>
<path id="red3" d="M182.609 365.217C283.47 365.202 365.2 283.47 365.216 182.609C365.2 81.7485 283.47 0.015625 182.609 0C81.7438 0.0171875 0.015625 81.7485 0 182.609C0.015625 283.47 81.7438 365.202 182.609 365.217Z" fill="#E6F3FF"/>
<path id="red4" d="M0 182.609H365.214C365.198 283.47 283.47 365.202 182.609 365.217C81.7438 365.202 0.015625 283.47 0 182.609Z" fill="#CFDBE6"/>
</g>
<defs>
<clipPath id="clip0_108_277">
<rect width="800" height="365" fill="white"/>
</clipPath>
</defs>
</svg>
