<?xml version="1.0" encoding="utf-8"?>
<!-- Generator: Adobe Illustrator 28.3.0, SVG Export Plug-In . SVG Version: 6.00 Build 0)  -->
<svg version="1.1" id="Svg4" xmlns="http://www.w3.org/2000/svg" xmlns:xlink="http://www.w3.org/1999/xlink" x="0px" y="0px"
	 viewBox="0 0 69.2 61" style="enable-background:new 0 0 69.2 61;" xml:space="preserve">
<style type="text/css">
	.Svg4_st0{fill-rule:evenodd;clip-rule:evenodd;fill:url(#Svg4_SVGID_1_);}
	.Svg4_st1{fill-rule:evenodd;clip-rule:evenodd;fill:url(#Svg4_SVGID_00000098208916965481131690000006516577305748694711_);}
	.Svg4_st2{fill-rule:evenodd;clip-rule:evenodd;fill:url(#Svg4_SVGID_00000128478555119530300180000010575360283845822338_);}
	.Svg4_st3{fill-rule:evenodd;clip-rule:evenodd;fill:url(#Svg4_SVGID_00000055695825760171051450000002817965029617198721_);}
	.Svg4_st4{fill-rule:evenodd;clip-rule:evenodd;fill:url(#Svg4_SVGID_00000001663260275047632290000005149656259366011798_);}
	.Svg4_st5{fill-rule:evenodd;clip-rule:evenodd;fill:url(#Svg4_SVGID_00000106136499251874641740000011438489278953772457_);}
	.Svg4_st6{fill-rule:evenodd;clip-rule:evenodd;fill:#2F87C8;}
	
		.Svg4_st7{clip-path:url(#Svg4_SVGID_00000163785841534759490910000007063059356832901046_);fill-rule:evenodd;clip-rule:evenodd;fill:#1F71B8;}
</style>
<g>
	
		<linearGradient id="Svg4_SVGID_1_" gradientUnits="userSpaceOnUse" x1="4.2736" y1="488.9907" x2="21.7283" y2="488.9907" gradientTransform="matrix(1 0 0 -1 0 498.6375)">
		<stop  offset="0" style="stop-color:#0D0D0D"/>
		<stop  offset="0" style="stop-color:#0F0F0F"/>
		<stop  offset="0" style="stop-color:#171717"/>
		<stop  offset="0" style="stop-color:#252524"/>
		<stop  offset="0" style="stop-color:#282827"/>
		<stop  offset="0.2273" style="stop-color:#797978"/>
		<stop  offset="0.5007" style="stop-color:#D6D6D6"/>
		<stop  offset="0.5619" style="stop-color:#C8C8C8"/>
		<stop  offset="0.6774" style="stop-color:#A4A4A4"/>
		<stop  offset="0.8347" style="stop-color:#696A6A"/>
		<stop  offset="1" style="stop-color:#242525"/>
	</linearGradient>
	<path class="Svg4_st0" d="M21.8,1.7v12.4l0,0c0,0.8-0.8,2-2.5,2.5c-3.4,1.4-9,1.4-12.4,0c-1.7-0.6-2.5-1.7-2.5-2.5l0,0V1.7H21.8z"/>
	
		<linearGradient id="Svg4_SVGID_00000181076392375423275910000008017761917140061870_" gradientUnits="userSpaceOnUse" x1="3.0125" y1="454.2657" x2="22.9726" y2="454.2657" gradientTransform="matrix(1 0 0 -1 0 498.6375)">
		<stop  offset="0" style="stop-color:#0D0D0D"/>
		<stop  offset="0" style="stop-color:#0F0F0F"/>
		<stop  offset="0" style="stop-color:#171717"/>
		<stop  offset="0" style="stop-color:#252524"/>
		<stop  offset="0" style="stop-color:#282827"/>
		<stop  offset="0.2273" style="stop-color:#797978"/>
		<stop  offset="0.5007" style="stop-color:#D6D6D6"/>
		<stop  offset="0.5619" style="stop-color:#C8C8C8"/>
		<stop  offset="0.6774" style="stop-color:#A4A4A4"/>
		<stop  offset="0.8347" style="stop-color:#696A6A"/>
		<stop  offset="1" style="stop-color:#242525"/>
	</linearGradient>
	<path style="fill-rule:evenodd;clip-rule:evenodd;fill:url(#Svg4_SVGID_00000181076392375423275910000008017761917140061870_);" d="
		M22.9,29v23.9l0,0c0,1.7-1.1,3.4-2.8,4.8c-3.9,2.8-10.1,2.8-14.1,0c-2-1.4-2.8-3.1-2.8-4.8l0,0V29H22.9z"/>
	
		<linearGradient id="Svg4_SVGID_00000111899902318960280360000007653698227780332166_" gradientUnits="userSpaceOnUse" x1="3.0125" y1="478.9532" x2="22.9726" y2="478.9532" gradientTransform="matrix(1 0 0 -1 0 498.6375)">
		<stop  offset="0" style="stop-color:#0D0D0D"/>
		<stop  offset="0" style="stop-color:#0F0F0F"/>
		<stop  offset="0" style="stop-color:#171717"/>
		<stop  offset="0" style="stop-color:#252524"/>
		<stop  offset="0" style="stop-color:#282827"/>
		<stop  offset="0.2273" style="stop-color:#797978"/>
		<stop  offset="0.5007" style="stop-color:#D6D6D6"/>
		<stop  offset="0.5619" style="stop-color:#C8C8C8"/>
		<stop  offset="0.6774" style="stop-color:#A4A4A4"/>
		<stop  offset="0.8347" style="stop-color:#696A6A"/>
		<stop  offset="1" style="stop-color:#242525"/>
	</linearGradient>
	<path style="fill-rule:evenodd;clip-rule:evenodd;fill:url(#Svg4_SVGID_00000111899902318960280360000007653698227780332166_);" d="
		M22.9,13.8v9l0,0c0,0.6-1.1,1.4-2.8,2c-3.9,1.1-10.1,1.1-14.1,0c-2-0.6-2.8-1.1-2.8-2l0,0v-9H22.9z"/>
	
		<linearGradient id="Svg4_SVGID_00000046315917593921633110000005446025033147462786_" gradientUnits="userSpaceOnUse" x1="0.8168" y1="474.5157" x2="25.1681" y2="474.5157" gradientTransform="matrix(1 0 0 -1 0 498.6375)">
		<stop  offset="0" style="stop-color:#9C9B9B"/>
		<stop  offset="1" style="stop-color:#FFFFFF"/>
	</linearGradient>
	<path style="fill-rule:evenodd;clip-rule:evenodd;fill:url(#Svg4_SVGID_00000046315917593921633110000005446025033147462786_);" d="
		M25.2,28.8v-9.3c0-1.4-0.6-2.5-1.4-2.5H2.1c-0.8,0-1.4,1.1-1.4,2.5v9.3c0,1.4,0.6,2.5,1.4,2.5h21.7C24.6,31.3,25.2,30.2,25.2,28.8z
		"/>
	
		<linearGradient id="Svg4_SVGID_00000085221782296538717380000013915313085049603713_" gradientUnits="userSpaceOnUse" x1="716.7902" y1="-421.0375" x2="724.5042" y2="-421.0375" gradientTransform="matrix(8.751184e-07 -1 -0.9297 -6.790232e-07 -352.7555 744.6177)">
		<stop  offset="0" style="stop-color:#0D0D0D"/>
		<stop  offset="0" style="stop-color:#0F0F0F"/>
		<stop  offset="0" style="stop-color:#171717"/>
		<stop  offset="0" style="stop-color:#252524"/>
		<stop  offset="0" style="stop-color:#282827"/>
		<stop  offset="0.2273" style="stop-color:#797978"/>
		<stop  offset="0.5007" style="stop-color:#D6D6D6"/>
		<stop  offset="0.5619" style="stop-color:#C8C8C8"/>
		<stop  offset="0.6774" style="stop-color:#A4A4A4"/>
		<stop  offset="0.8347" style="stop-color:#696A6A"/>
		<stop  offset="1" style="stop-color:#242525"/>
	</linearGradient>
	<path style="fill-rule:evenodd;clip-rule:evenodd;fill:url(#Svg4_SVGID_00000085221782296538717380000013915313085049603713_);" d="
		M67.7,22.6v3.1c0,1.4-1.1,2.3-2.3,2.3H11.9c-1.4,0-2.3-1.1-2.3-2.3v-3.1c0-1.4,1.1-2.3,2.3-2.3h53.5C66.6,20,67.7,21.2,67.7,22.6z"
		/>
	
		<linearGradient id="Svg4_SVGID_00000181774632283237464530000010336036822390142876_" gradientUnits="userSpaceOnUse" x1="9.6803" y1="470.2322" x2="16.477" y2="478.9577" gradientTransform="matrix(1 0 0 -1 0 498.6375)">
		<stop  offset="0" style="stop-color:#0D0D0D"/>
		<stop  offset="0" style="stop-color:#0F0F0F"/>
		<stop  offset="0" style="stop-color:#171717"/>
		<stop  offset="0" style="stop-color:#252524"/>
		<stop  offset="0" style="stop-color:#282827"/>
		<stop  offset="0.2273" style="stop-color:#797978"/>
		<stop  offset="0.5007" style="stop-color:#D6D6D6"/>
		<stop  offset="0.5619" style="stop-color:#C8C8C8"/>
		<stop  offset="0.6774" style="stop-color:#A4A4A4"/>
		<stop  offset="0.8347" style="stop-color:#696A6A"/>
		<stop  offset="1" style="stop-color:#242525"/>
	</linearGradient>
	
		<polygon style="fill-rule:evenodd;clip-rule:evenodd;fill:url(#Svg4_SVGID_00000181774632283237464530000010336036822390142876_);" points="
		15.9,19.2 18.4,24 15.9,28.8 10.3,28.8 7.4,24 10.3,19.2 	"/>
	<path class="Svg4_st6" d="M65.1,29H30.2c-1.7,0-3.1-1.4-3.1-3.1V22c0-1.7,1.4-3.1,3.1-3.1h34.9c1.7,0,3.1,1.4,3.1,3.1v3.9
		C68.2,27.6,66.8,29,65.1,29z"/>
	<g>
		<g>
			<g>
				<g>
					<g>
						<g>
							<defs>
								<rect id="Svg4_SVGID_00000159428850113076331880000007989829926337906077_" x="27.1" y="24" width="41.1" height="5.1"/>
							</defs>
							<clipPath id="Svg4_SVGID_00000094615352975092335580000006937020252752980923_">
								<use xlink:href="#Svg4_SVGID_00000159428850113076331880000007989829926337906077_"  style="overflow:visible;"/>
							</clipPath>
							
								<path style="clip-path:url(#Svg4_SVGID_00000094615352975092335580000006937020252752980923_);fill-rule:evenodd;clip-rule:evenodd;fill:#1F71B8;" d="
								M65.1,29H30.2c-1.7,0-3.1-1.4-3.1-3.1V22c0-1.7,1.4-3.1,3.1-3.1h34.9c1.7,0,3.1,1.4,3.1,3.1v3.9C68.2,27.6,66.8,29,65.1,29z"
								/>
						</g>
					</g>
				</g>
			</g>
		</g>
	</g>
</g>
</svg>
