<?xml version="1.0" encoding="utf-8"?>
<!-- Generator: Adobe Illustrator 28.3.0, SVG Export Plug-In . SVG Version: 6.00 Build 0)  -->
<svg version="1.1" id="Svg5" xmlns="http://www.w3.org/2000/svg" xmlns:xlink="http://www.w3.org/1999/xlink" x="0px" y="0px"
	 viewBox="0 0 66.7 86.6" style="enable-background:new 0 0 66.7 86.6;" xml:space="preserve">
<style type="text/css">
	.Svg5_st0{fill-rule:evenodd;clip-rule:evenodd;fill:url(#Svg5_SVGID_1_);}
	.Svg5_st1{fill-rule:evenodd;clip-rule:evenodd;fill:#1D1D1B;}
	.Svg5_st2{fill-rule:evenodd;clip-rule:evenodd;fill:#B1B1B1;}
	.Svg5_st3{fill-rule:evenodd;clip-rule:evenodd;fill:url(#Svg5_SVGID_00000098942671008741748420000013716514316709820569_);}
	.Svg5_st4{fill-rule:evenodd;clip-rule:evenodd;fill:url(#Svg5_SVGID_00000087410446461065585150000000012132182185240449_);}
	.Svg5_st5{fill-rule:evenodd;clip-rule:evenodd;fill:url(#Svg5_SVGID_00000178898993822073139210000006760150611717336965_);}
	.Svg5_st6{fill-rule:evenodd;clip-rule:evenodd;fill:#F2987A;}
	.Svg5_st7{fill:#1D1D1B;}
	.Svg5_st8{fill-rule:evenodd;clip-rule:evenodd;fill:#3C3C3B;}
	.Svg5_st9{fill-rule:evenodd;clip-rule:evenodd;fill:#ADADAD;}
	.Svg5_st10{fill-rule:evenodd;clip-rule:evenodd;fill:#D1D1D1;}
	.Svg5_st11{fill:none;stroke:#1D1D1B;stroke-width:0.5;stroke-miterlimit:10;}
	.Svg5_st12{fill-rule:evenodd;clip-rule:evenodd;fill:url(#Svg5_SVGID_00000168116319701271576500000012663704222297545119_);}
	.Svg5_st13{fill-rule:evenodd;clip-rule:evenodd;fill:url(#Svg5_SVGID_00000061450879562268732380000015747621795575005575_);}
	.Svg5_st14{fill-rule:evenodd;clip-rule:evenodd;fill:url(#Svg5_SVGID_00000054257314468784830940000013147985105963961775_);}
	.Svg5_st15{fill-rule:evenodd;clip-rule:evenodd;fill:url(#Svg5_SVGID_00000078027131912330679540000009485780950603807368_);}
	.Svg5_st16{fill-rule:evenodd;clip-rule:evenodd;fill:url(#Svg5_SVGID_00000042700817465144870910000016043182927293330076_);}
	.Svg5_st17{fill-rule:evenodd;clip-rule:evenodd;fill:url(#Svg5_SVGID_00000069397504175371880580000006374910971638846886_);}
	.Svg5_st18{fill-rule:evenodd;clip-rule:evenodd;fill:#2F87C8;}
	
		.Svg5_st19{clip-path:url(#Svg5_SVGID_00000021836615053666107600000000335287533374125228_);fill-rule:evenodd;clip-rule:evenodd;fill:#1F71B8;}
	.Svg5_st20{clip-path:url(#Svg5_SVGID_00000119077321413693736630000011424184123361917583_);}
	.Svg5_st21{clip-path:url(#Svg5_SVGID_00000004512688775828425360000003548723483722756797_);}
	.Svg5_st22{clip-path:url(#Svg5_SVGID_00000153705494990383667050000018399918575060463770_);}
	.Svg5_st23{clip-path:url(#Svg5_SVGID_00000153665147788043672050000006107718515024266888_);}
	.Svg5_st24{clip-path:url(#Svg5_SVGID_00000164502497592238636920000004593531687931040688_);}
</style>
<symbol  id="Svg5_basinc_2" viewBox="-23.8 -31.9 47.6 63.8">
	
		<linearGradient id="Svg5_SVGID_1_" gradientUnits="userSpaceOnUse" x1="-146.6593" y1="-215" x2="-139.0074" y2="-215" gradientTransform="matrix(1 0 0 1 142.8 191.4)">
		<stop  offset="0" style="stop-color:#E5E2DF"/>
		<stop  offset="0" style="stop-color:#DED9D6"/>
		<stop  offset="6.299578e-02" style="stop-color:#CFCAC9"/>
		<stop  offset="0.1833" style="stop-color:#A8A4A7"/>
		<stop  offset="0.264" style="stop-color:#8B878D"/>
		<stop  offset="0.5225" style="stop-color:#F3F4F4"/>
		<stop  offset="0.5842" style="stop-color:#E5E5E6"/>
		<stop  offset="0.7027" style="stop-color:#C0BEC0"/>
		<stop  offset="0.8647" style="stop-color:#858085"/>
		<stop  offset="0.8764" style="stop-color:#807B80"/>
		<stop  offset="1" style="stop-color:#D1D3D4"/>
		<stop  offset="1" style="stop-color:#A7A9AC"/>
	</linearGradient>
	<rect x="-3.9" y="-31.9" class="Svg5_st0" width="7.7" height="16.6"/>
	<path class="Svg5_st1" d="M-9.7-0.3h-1.2v0.1h-1.6v0.1V0h1.6v0.1h1.2c0-0.1,0-0.1,0-0.2C-9.7-0.1-9.7-0.2-9.7-0.3L-9.7-0.3z"/>
	<path class="Svg5_st1" d="M-9.9,3.2L-11.7,4c0,0.1,0,0.1,0.1,0.1l1.8-0.7C-9.9,3.3-9.9,3.3-9.9,3.2L-9.9,3.2z"/>
	<g>
		<polygon class="Svg5_st2" points="-5.2,-15.6 5.1,-15.6 5.7,-16.5 5.7,-19.4 5.1,-20.1 -5.2,-20.1 -5.7,-19.5 -5.7,-16.3 		"/>
	</g>
	
		<linearGradient id="Svg5_SVGID_00000171688733243521434920000017062273362895046077_" gradientUnits="userSpaceOnUse" x1="-141.991" y1="-160.1321" x2="-143.8505" y2="-213.3797" gradientTransform="matrix(1 0 0 1 142.8 191.4)">
		<stop  offset="0" style="stop-color:#9C9B9B"/>
		<stop  offset="1" style="stop-color:#FFFFFF"/>
	</linearGradient>
	<path style="fill-rule:evenodd;clip-rule:evenodd;fill:url(#Svg5_SVGID_00000171688733243521434920000017062273362895046077_);" d="
		M0,31.9c13.1,0,23.8-10.6,23.8-23.8C23.8-5,13.1-15.6,0-15.6S-23.8-5-23.8,8.1C-23.8,21.3-13.1,31.9,0,31.9z"/>
	
		<linearGradient id="Svg5_SVGID_00000079461107777680643330000002700091842067037877_" gradientUnits="userSpaceOnUse" x1="-142.8" y1="-198.9169" x2="-142.8" y2="-164.4972" gradientTransform="matrix(1 0 0 1 142.8 191.4)">
		<stop  offset="0" style="stop-color:#9C9B9B"/>
		<stop  offset="1" style="stop-color:#FFFFFF"/>
	</linearGradient>
	<path style="fill-rule:evenodd;clip-rule:evenodd;fill:url(#Svg5_SVGID_00000079461107777680643330000002700091842067037877_);" d="
		M0,28c-11,0-19.9-8.9-19.9-19.9S-11-11.8,0-11.8S19.9-2.9,19.9,8.1S11,28,0,28z"/>
	
		<linearGradient id="Svg5_SVGID_00000124848218271423100010000013583845088652962950_" gradientUnits="userSpaceOnUse" x1="-136.7353" y1="-189.5803" x2="-144.6202" y2="-181.4152" gradientTransform="matrix(1 0 0 1 142.8 191.4)">
		<stop  offset="0" style="stop-color:#FFFFFF"/>
		<stop  offset="1" style="stop-color:#E3E3E2"/>
	</linearGradient>
	<path style="fill-rule:evenodd;clip-rule:evenodd;fill:url(#Svg5_SVGID_00000124848218271423100010000013583845088652962950_);" d="
		M0,26c9.9,0,17.9-8,17.9-17.9S9.9-9.8,0-9.8s-17.9,8-17.9,17.9S-9.9,26,0,26z"/>
	<path class="Svg5_st6" d="M12.3-3.7l-1.6,1.6c2.8,2.7,4.5,6.6,4.5,10.8c0,0.1,0,0.3,0,0.4c-0.1,4-1.8,7.6-4.5,10.3l1.6,1.6
		c3.3-3.3,5-7.5,5.1-11.8C17.6,4.3,15.7-0.4,12.3-3.7z"/>
	<path class="Svg5_st1" d="M0.1,25.8v-2.6c0.1,0,0.2,0,0.2,0v-1.9c-0.1,0-0.2,0-0.4,0c-0.1,0-0.2,0-0.3,0v1.9c0.1,0,0.1,0,0.2,0v2.6h0.1
		C0,25.8,0.1,25.8,0.1,25.8L0.1,25.8z"/>
	<path class="Svg5_st1" d="M-8.7-0.6L-10-1.9c-0.1,0.1-0.1,0.1-0.2,0.2L-12-3.5c-0.1,0.1-0.1,0.1-0.2,0.2l1.8,1.8l-0.1,0.1l1.3,1.3
		C-9-0.2-8.9-0.4-8.7-0.6L-8.7-0.6z"/>
	<path class="Svg5_st1" d="M-9.2,17.4l-1.3,1.3c0.1,0,0.1,0.1,0.2,0.2l-1.8,1.8c0.1,0.1,0.1,0.1,0.2,0.2l1.8-1.8c0,0,0.1,0.1,0.2,0.2
		l1.3-1.3C-8.9,17.7-9,17.5-9.2,17.4L-9.2,17.4z"/>
	<path class="Svg5_st1" d="M8.7,17.8l1.3,1.3l0.1-0.1l1.8,1.8c0.1-0.1,0.1-0.1,0.2-0.2l-1.8-1.8c0.1-0.1,0.1-0.1,0.2-0.2l-1.3-1.3
		C9.1,17.5,8.9,17.7,8.7,17.8L8.7,17.8z"/>
	<path class="Svg5_st1" d="M12.7,9h1.9c0-0.1,0-0.1,0-0.2h2.6V8.7V8.6h-2.6c0-0.1,0-0.1,0-0.2h-1.9c0,0.1,0,0.2,0,0.4
		C12.7,8.8,12.7,8.9,12.7,9L12.7,9z"/>
	<path class="Svg5_st1" d="M9.2-0.1l1.3-1.3c0-0.1-0.1-0.1-0.1-0.2l1.8-1.8c-0.1-0.1-0.1-0.1-0.2-0.2l-1.8,1.8c0-0.1-0.1-0.1-0.2-0.1
		L8.7-0.5C8.9-0.4,9-0.2,9.2-0.1L9.2-0.1z"/>
	<path class="Svg5_st1" d="M5.2,21.6l1.2,2.9c0.1,0,0.2-0.1,0.2-0.1l-1.2-2.9C5.4,21.6,5.3,21.6,5.2,21.6L5.2,21.6z"/>
	<path class="Svg5_st1" d="M12.9,14.1l2.9,1.2c0-0.1,0.1-0.2,0.1-0.2L13,13.9C13,14,12.9,14.1,12.9,14.1L12.9,14.1z"/>
	<path class="Svg5_st1" d="M13,3.4l2.9-1.2c0-0.1-0.1-0.2-0.1-0.2l-2.9,1.2C12.9,3.2,13,3.3,13,3.4L13,3.4z"/>
	<path class="Svg5_st1" d="M-5.5,21.6l-1.2,2.9c0.1,0,0.2,0.1,0.2,0.1l1.2-2.9C-5.3,21.6-5.4,21.6-5.5,21.6z"/>
	<path class="Svg5_st7" d="M-8.6,0.7c0,1.1,0.6,1,0.8,0.7C-7.6,1.1-7.6,0.2-7.9,0C-8-0.2-8.3-0.2-8.4,0C-8.5,0.2-8.6,0.4-8.6,0.7
		L-8.6,0.7z M-8.4,0.7c0-0.3,0-0.7,0.3-0.7c0.4,0,0.3,1.1,0.2,1.2c-0.1,0.2-0.3,0.2-0.4,0C-8.4,1.2-8.4,1-8.4,0.7z"/>
	<path class="Svg5_st8" d="M13.3,15.5l-11.5-7c-0.1-1.3-1.4-2-2.5-1.6l-2.1-1.3L-4,8l2.1,0.9c0.2,1.4,1.7,2,2.9,1.3L13.3,15.5L13.3,15.5z
		 M0.8,9L0.8,9c-0.5,1-2,0.2-1.5-0.8C-0.2,7.3,1.3,8,0.8,9z"/>
	<path class="Svg5_st1" d="M0,10.2c0.8,0,1.5-0.7,1.5-1.5S0.8,7.2,0,7.2s-1.5,0.7-1.5,1.5S-0.8,10.2,0,10.2z"/>
	<path class="Svg5_st9" d="M0,10c0.7,0,1.3-0.6,1.3-1.3S0.7,7.4,0,7.4S-1.3,8-1.3,8.7S-0.7,10,0,10z"/>
	<path class="Svg5_st10" d="M0,10c0.7,0,1.2-0.5,1.2-1.2S0.7,7.6,0,7.6s-1.2,0.5-1.2,1.2C-1.2,9.4-0.7,10,0,10z"/>
	<text transform="matrix(1 0 0 -1 -9.0522 14.9727)" style="font-family:'ArialMT'; font-size:3.6171px;">5</text>
	<text transform="matrix(1 0 0 -1 5.4966 15.6484)" style="font-family:'ArialMT'; font-size:3.2064px;">10</text>
	<text transform="matrix(1 0 0 -1 6.1685 0.2324)" style="font-family:'ArialMT'; font-size:2.9774px;">15</text>
	<text transform="matrix(1 0 0 -1 6.6079 -3.499)" style="font-family:'ArialMT'; font-size:2.8057px;">16</text>
	<text transform="matrix(1 0 0 -1 -1.5327 -3.499)" style="font-family:'ArialMT'; font-size:2.8057px;">bar</text>
	<line class="Svg5_st11" x1="9.9" y1="-3.2" x2="11.4" y2="-4.7"/>
</symbol>
<g>
	<g>
		<g>
			<g>
				<g>
					<defs>
						<rect id="Svg5_SVGID_00000137814590735381265050000000013562699585348031_" width="66.7" height="86.5"/>
					</defs>
					<clipPath id="Svg5_SVGID_00000034768477458488528780000012674257719424226721_">
						<use xlink:href="#Svg5_SVGID_00000137814590735381265050000000013562699585348031_"  style="overflow:visible;"/>
					</clipPath>
					<g style="clip-path:url(#Svg5_SVGID_00000034768477458488528780000012674257719424226721_);">
						<g>
							<g>
								<g>
									<g>
										<g>
											<defs>
												<rect id="Svg5_SVGID_00000110460379528029183500000005794736350442194337_" x="2.6" y="0.8" width="62.5" height="85.7"/>
											</defs>
											<clipPath id="Svg5_SVGID_00000093150333570954172390000002039459344874940057_">
												<use xlink:href="#Svg5_SVGID_00000110460379528029183500000005794736350442194337_"  style="overflow:visible;"/>
											</clipPath>
											
												<g transform="matrix(1 0 0 1 0 -7.629395e-06)" style="clip-path:url(#Svg5_SVGID_00000093150333570954172390000002039459344874940057_);">
												<g>
													<g>
														<g>
															<g>
																<defs>
																	<rect id="Svg5_SVGID_00000099632859411792556900000006173857890957525137_" x="2" y="2.2" width="62.5" height="84.3"/>
																</defs>
																<clipPath id="Svg5_SVGID_00000105406975789775017270000017058925416013759672_">
																	<use xlink:href="#Svg5_SVGID_00000099632859411792556900000006173857890957525137_"  style="overflow:visible;"/>
																</clipPath>
																<g style="clip-path:url(#Svg5_SVGID_00000105406975789775017270000017058925416013759672_);">
																	<g>
																		<g>
																			<g>
																				<defs>
																					
																						<rect id="Svg5_SVGID_00000103946702800802281550000009666374034439235515_" x="2" y="2.2" width="62.8" height="84.3"/>
																				</defs>
																				<clipPath id="Svg5_SVGID_00000161619173846868236110000013314253202856385193_">
																					<use xlink:href="#Svg5_SVGID_00000103946702800802281550000009666374034439235515_"  style="overflow:visible;"/>
																				</clipPath>
																				<g style="clip-path:url(#Svg5_SVGID_00000161619173846868236110000013314253202856385193_);">
																					<g>
																						<g>
																							<defs>
																								
																									<rect id="Svg5_SVGID_00000032617751950280591380000013438233069880804541_" x="2" y="1.9" width="62.8" height="84.3"/>
																							</defs>
																							<clipPath id="Svg5_SVGID_00000023262067473497250710000012713134880744769159_">
																								
																									<use xlink:href="#Svg5_SVGID_00000032617751950280591380000013438233069880804541_"  style="overflow:visible;"/>
																							</clipPath>
																							<g style="clip-path:url(#Svg5_SVGID_00000023262067473497250710000012713134880744769159_);">
																								<g>
																									<defs>
																										
																											<rect id="Svg5_SVGID_00000093151975839925986170000012201542584264452750_" x="2" y="1.9" width="62.9" height="84.3"/>
																									</defs>
																									<clipPath id="Svg5_SVGID_00000166648211173983124790000018068024485521647249_">
																										
																											<use xlink:href="#Svg5_SVGID_00000093151975839925986170000012201542584264452750_"  style="overflow:visible;"/>
																									</clipPath>
																									
																										<g transform="matrix(1 0 0 1 0 3.814697e-06)" style="clip-path:url(#Svg5_SVGID_00000166648211173983124790000018068024485521647249_);">
																										
																											<use xlink:href="#Svg5_basinc_2"  width="47.6" height="63.8" x="-23.8" y="-31.9" transform="matrix(1.3216 0 0 -1.3216 33.4176 44.0578)" style="overflow:visible;"/>
																									</g>
																								</g>
																							</g>
																						</g>
																					</g>
																				</g>
																			</g>
																		</g>
																	</g>
																</g>
															</g>
														</g>
													</g>
												</g>
											</g>
										</g>
									</g>
								</g>
							</g>
						</g>
					</g>
				</g>
			</g>
		</g>
	</g>
</g>
</svg>
