<?xml version="1.0" encoding="utf-8"?>
<!-- Generator: Adobe Illustrator 28.3.0, SVG Export Plug-In . SVG Version: 6.00 Build 0)  -->
<svg version="1.1" id="Svg8_Svg8" xmlns="http://www.w3.org/2000/svg" xmlns:xlink="http://www.w3.org/1999/xlink" x="0px" y="0px"
	 viewBox="0 0 137.7 68.7" style="enable-background:new 0 0 137.7 68.7;" xml:space="preserve">
<style type="text/css">
	.Svg8_st0{fill:#0D00F4;}
	.Svg8_st1{fill:#443530;enable-background:new    ;}
	.Svg8_st2{fill:#332824;enable-background:new    ;}
</style>
<g>
	<path class="Svg8_st0" d="M46.7,21.8v0.5C46.7,22.1,46.8,22,46.7,21.8L46.7,21.8z"/>
	<g>
		<g>
			
				<image style="overflow:visible;" width="512" height="175" xlink:href="D2C5C2A5.png"  transform="matrix(0.2637 0 0 0.2637 1.3696 21.125)">
			</image>
		</g>
	</g>
	<g>
		<g>
			
				<image style="overflow:visible;" width="512" height="69" xlink:href="D2C5C2A7.png"  transform="matrix(0.2637 0 0 0.2637 1.389 3.1672)">
			</image>
		</g>
	</g>
	<ellipse class="Svg8_st1" cx="68.9" cy="21.2" rx="33.4" ry="8.5"/>
	<path class="Svg8_st2" d="M70.2,23.4c-18.1,0-30.8,2.3-26.9,3.3c4.7,1.1,7.8,3,25.8,3s21.7-2.4,25.7-3.1C98.7,25.9,88.2,23.4,70.2,23.4z
		"/>
	<g>
		<g>
			
				<image style="overflow:visible;" width="512" height="73" xlink:href="D2C5C2A2.png"  transform="matrix(0.2637 0 0 0.2637 1.389 21.1375)">
			</image>
		</g>
	</g>
</g>
</svg>
