<?xml version="1.0" encoding="utf-8"?>
<!-- Generator: Adobe Illustrator 28.3.0, SVG Export Plug-In . SVG Version: 6.00 Build 0)  -->
<svg version="1.1" id="Svg9" xmlns="http://www.w3.org/2000/svg" xmlns:xlink="http://www.w3.org/1999/xlink" x="0px" y="0px"
	 viewBox="0 0 58.7 391" style="enable-background:new 0 0 58.7 391;" xml:space="preserve">
<style type="text/css">
	.Svg9_st0{fill:url(#Svg9_SVGID_1_);}
	.Svg9_st1{fill:url(#Svg9_SVGID_00000168821784007459949560000013516357647142045352_);}
	.Svg9_st2{fill:url(#Svg9_SVGID_00000062904662255868596370000018141099392297345422_);}
	.Svg9_st3{fill:#534741;}
	.Svg9_st4{fill:url(#Svg9_boru-govde_00000163043096488576995990000011375671109784326078_);}
	.Svg9_st5{display:none;fill:none;stroke:#3FA9F5;stroke-width:8.222;stroke-miterlimit:10;}
	.Svg9_st6{fill:url(#Svg9_SVGID_00000084509606618906829930000016648261110710761894_);}
	.Svg9_st7{fill:url(#Svg9_boru-govde_00000072248535191311481460000015775005776135455912_);}
	.Svg9_st8{fill:#007F2B;}
	.Svg9_st9{fill:#E6E6E6;}
	.Svg9_st10{fill:#C1272D;}
	.Svg9_st11{fill:#000102;}
	.Svg9_st12{fill:url(#Svg9_SVGID_00000093898343828597120660000011808607215511562156_);}
	.Svg9_st13{fill:url(#Svg9_SVGID_00000145059682018626992130000011921560992874044606_);}
	.Svg9_st14{fill:url(#Svg9_boru-govde_00000018229118271980911210000013531975189367226811_);}
	.Svg9_st15{fill:url(#Svg9_SVGID_00000054951094446032560330000011731426856210015422_);}
	
		.Svg9_st16{fill:url(#Svg9_SVGID_00000039812208786717870090000007682382244866695098_);stroke:#4E4D4D;stroke-width:10.4406;stroke-miterlimit:10;}
	
		.Svg9_st17{fill:url(#Svg9_SVGID_00000046312881085944720830000002358048996808958885_);stroke:#4E4D4D;stroke-width:10.4406;stroke-miterlimit:10;}
</style>
<g>
	    <!-- Animated blue stripe -->
   
	
		<linearGradient id="Svg9_SVGID_1_" gradientUnits="userSpaceOnUse" x1="17.7565" y1="1131.3696" x2="17.7565" y2="1131.3696" gradientTransform="matrix(1 0 0 -1 0 1159.3044)">
		<stop  offset="0.148" style="stop-color:#839E38"/>
		<stop  offset="0.5726" style="stop-color:#A5C746"/>
		<stop  offset="0.9804" style="stop-color:#839E38"/>
	</linearGradient>
	<path class="Svg9_st0" d="M17.8,27.9L17.8,27.9L17.8,27.9L17.8,27.9z"/>
	
		<linearGradient id="Svg9_SVGID_00000059998879375184486650000005117202508241012366_" gradientUnits="userSpaceOnUse" x1="-24.1996" y1="1119.3696" x2="-10.2243" y2="1119.3696" gradientTransform="matrix(1 0 0 -1 0 1159.3044)">
		<stop  offset="0.148" style="stop-color:#839E38"/>
		<stop  offset="0.5726" style="stop-color:#A5C746"/>
		<stop  offset="0.9804" style="stop-color:#839E38"/>
	</linearGradient>
	<path style="fill:url(#Svg9_SVGID_00000059998879375184486650000005117202508241012366_);" d="M-10.3,40.1c0.1-0.1,0.1-0.1,0.1-0.2
		s0-0.1-0.1-0.2c0,0.1,0,0.1,0,0.1C-10.2,39.9-10.3,40-10.3,40.1z"/>
	
		<linearGradient id="Svg9_SVGID_00000016056078402833051400000001385268995198126990_" gradientUnits="userSpaceOnUse" x1="28.4539" y1="463.6889" x2="30.7948" y2="737.4205" gradientTransform="matrix(1 0 0 -1 0 789.3043)">
		<stop  offset="2.843824e-02" style="stop-color:#403029"/>
		<stop  offset="0.8356" style="stop-color:#94908C"/>
	</linearGradient>
	<path style="fill:url(#Svg9_SVGID_00000016056078402833051400000001385268995198126990_);" d="M55.2,34.2H3.6l0.6,324.9h0.2
		c1-6.5,12.1-11.7,25.5-11.7c13.5,0,24.5,5.2,25.5,11.7h0.2L55.2,34.2z"/>
	<path class="Svg9_st3" d="M24.2,350.1c-0.7-0.3-3.8-0.4-3,0.9s-2,1-0.1,2.2s2.6,0.8,3.2,0.5c1.7-0.7,2.4-2.2,1.9-2.7
		C25.4,350.2,24.2,350.1,24.2,350.1z"/>
	<path class="Svg9_st3" d="M53,280.7c-0.7-0.3-3.8-0.4-3,0.9c0.9,1.3-2,1-0.1,2.2s2.6,0.8,3.2,0.5c1.7-0.7,2.4-2.2,1.9-2.7
		C54.2,280.8,53,280.7,53,280.7z"/>
	<g id="Svg9_boru_00000072240544294552648400000015758033851956469906_">
		
			<linearGradient id="Svg9_boru-govde_00000108285217709897416520000013726935991772950176_" gradientUnits="userSpaceOnUse" x1="4727.5391" y1="1637.2523" x2="4727.5391" y2="1611.281" gradientTransform="matrix(0 -1 -1 0 1655.0088 4922.1235)">
			<stop  offset="9.525904e-02" style="stop-color:#B7B7B7"/>
			<stop  offset="0.4426" style="stop-color:#F2F2F2"/>
			<stop  offset="0.888" style="stop-color:#858585"/>
		</linearGradient>
		
			<polygon id="Svg9_boru-govde_00000013900312633296252950000015647076190484220345_" style="fill:url(#Svg9_boru-govde_00000108285217709897416520000013726935991772950176_);" points="
			44,23.7 44,365.4 17.8,365.4 17.8,23.7 		"/>
		
			<line id="Svg9_DepoCikisHat2_00000067945503769538980760000011461410064471697580_" class="Svg9_st5" x1="30.6" y1="26.8" x2="30.6" y2="365.8"/>
			
	</g>
	
		<linearGradient id="Svg9_SVGID_00000170991250806102571710000016747130369421513884_" gradientUnits="userSpaceOnUse" x1="23.8463" y1="805.3572" x2="37.7429" y2="805.3572" gradientTransform="matrix(1 0 0 -1 0 1159.3044)">
		<stop  offset="9.525904e-02" style="stop-color:#919191"/>
		<stop  offset="0.4533" style="stop-color:#D6D6D6"/>
		<stop  offset="0.888" style="stop-color:#666666"/>
	</linearGradient>
	<path style="fill:url(#Svg9_SVGID_00000170991250806102571710000016747130369421513884_);" d="M30.8,388.9L30.8,388.9
		c-3.9,0-7-2.6-7-5.9l0.4-48.5l0.3-0.9c0.8-2.5,0.7-5.1-0.1-7.6l0,0l0.1-4.6c0-3.3,13.4-3.3,13.4,0v4.5l0,0c-0.6,2.5-0.7,5-0.2,7.5
		l0.2,1.2v48.3C37.8,386.3,34.7,388.9,30.8,388.9z"/>
	<g id="Svg9_boru_00000041272215351202503750000008947336563139139976_">
		
			<linearGradient id="Svg9_boru-govde_00000028291640000985111420000010179006046746923648_" gradientUnits="userSpaceOnUse" x1="4750.6387" y1="1626.215" x2="4750.6387" y2="1621.1787" gradientTransform="matrix(0 -1 -1 0 1655.0088 4922.1235)">
			<stop  offset="9.525904e-02" style="stop-color:#B7B7B7"/>
			<stop  offset="0.4426" style="stop-color:#F2F2F2"/>
			<stop  offset="0.888" style="stop-color:#858585"/>
		</linearGradient>
		
			<path id="Svg9_boru-govde_00000108296179135192864790000001013833708447854246_" style="fill:url(#Svg9_boru-govde_00000028291640000985111420000010179006046746923648_);" d="
			M33.9,21.2v300.5c0,2.3-1,4.1-2.1,4.1h-0.9c-1.2,0-2.1-1.8-2.1-4.1V21.2c0-2.3,1-4.1,2.1-4.1h0.9C33,17.1,33.9,18.9,33.9,21.2z"/>
		
			<line id="Svg9_DepoCikisHat2_00000142151028212393626150000010203145794667676305_" class="Svg9_st5" x1="31.3" y1="62.4" x2="31.3" y2="499.6"/>
	</g>
	<g>
		<g>
			<path class="Svg9_st8" d="M15.4,30.5c0,42.3,0,84.4,0,126.7c0,42,0,84,0,126.1c0,23.7,0,47.4,0,71.1c0,2,1.7,2,1.7,0
				c0-42.3,0-84.4,0-126.7c0-42,0-84,0-126.1c0-23.7,0-47.4,0-71.1C17.1,28.5,15.4,28.5,15.4,30.5L15.4,30.5z"/>
		</g>
	</g>
	<g>
		<g>
			<path class="Svg9_st9" d="M45.1,37.9c0,41.1,0,82.1,0,123.2c0,40.9,0,81.7,0,122.5c0,23.1,0,46,0,69.2c0,3.9,3.3,3.9,3.3,0
				c0-41.1,0-82.1,0-123.2c0-40.9,0-81.7,0-122.5c0-23.1,0-46,0-69.2C48.4,33.9,45.1,33.9,45.1,37.9L45.1,37.9z"/>
		</g>
	</g>
	<g>
		<g>
			<path class="Svg9_st10" d="M11.9,30.1c0,42.3,0,84.4,0,126.7c0,42,0,84,0,126.1c0,23.7,0,47.4,0,71.1c0,2,1.7,2,1.7,0
				c0-42.3,0-84.4,0-126.7c0-42,0-84,0-126.1c0-23.7,0-47.4,0-71.1C13.6,28,11.9,28,11.9,30.1L11.9,30.1z"/>
		</g>
	</g>
	<g>
		<g>
			<path d="M45.9,37.6c0,41.2,0,82.4,0,123.6c0,41.1,0,82,0,123c0,23.2,0,46.2,0,69.4c0,1.9,1.7,1.9,1.7,0c0-41.2,0-82.4,0-123.6
				c0-41.1,0-82,0-123c0-23.2,0-46.2,0-69.4C47.6,35.7,45.9,35.7,45.9,37.6L45.9,37.6z"/>
		</g>
	</g>
	<path class="Svg9_st11" d="M34.3,331.9L34.3,331.9c-1.5,0.4-3.2,0.4-4.7,0.1l-0.3-0.1c-0.4-0.1-0.8-0.5-0.8-0.9v-1.2
		c0-0.6,0.6-1,1.3-0.9l0.5,0.1c1,0.2,2.1,0.2,3.1,0l0.4-0.1c0.7-0.1,1.3,0.3,1.3,0.9v1.3C35.1,331.5,34.8,331.8,34.3,331.9z"/>
	
		<linearGradient id="Svg9_SVGID_00000136396701703756109850000002198245131030031765_" gradientUnits="userSpaceOnUse" x1="6.5065" y1="484.2833" x2="6.5065" y2="696.8138" gradientTransform="matrix(1 0 0 -1 0 789.3043)">
		<stop  offset="0.5279" style="stop-color:#BAB9B9"/>
		<stop  offset="0.8184" style="stop-color:#807F7F"/>
	</linearGradient>
	<path style="fill:url(#Svg9_SVGID_00000136396701703756109850000002198245131030031765_);" d="M9.5,44.4H4v140l0,0l-0.4,36v78l0.1,39.1
		l0.5,21.8c0.1,0.1,0.1,0.1,0.2,0c1.3-3.3,3.8-5,3.8-5l1.2-169.8h0.1L9.5,44.4L9.5,44.4z"/>
	
		<linearGradient id="Svg9_SVGID_00000137101486744207791960000012243691607538554253_" gradientUnits="userSpaceOnUse" x1="-1987.6157" y1="484.4062" x2="-1987.6157" y2="697.4189" gradientTransform="matrix(-1 0 0 -1 -1934.3591 789.3043)">
		<stop  offset="0.5279" style="stop-color:#BAB9B9"/>
		<stop  offset="0.8184" style="stop-color:#807F7F"/>
	</linearGradient>
	<path style="fill:url(#Svg9_SVGID_00000137101486744207791960000012243691607538554253_);" d="M50.4,43.7h5.5V184l0,0l0.4,36.1v78.1
		L56.2,314l-0.1,23.4l-0.5,21.8c-0.1,0.1-0.1,0.1-0.2,0c-1.3-3.3-3.8-5-3.8-5L50.4,184h-0.1L50.4,43.7L50.4,43.7z"/>
	<g id="Svg9_boru_00000140734165345926212830000005863797986333999534_">
		
			<linearGradient id="Svg9_boru-govde_00000035495810868709354330000012204718276924884917_" gradientUnits="userSpaceOnUse" x1="4412.4658" y1="1674.0157" x2="4412.4658" y2="1650.1538" gradientTransform="matrix(0 -1 -1 0 1692.1722 4434.8003)">
			<stop  offset="9.525904e-02" style="stop-color:#B7B7B7"/>
			<stop  offset="0.4426" style="stop-color:#F2F2F2"/>
			<stop  offset="0.888" style="stop-color:#858585"/>
		</linearGradient>
		
			<polygon id="Svg9_boru-govde_00000098922740507358858810000009265358836286912165_" style="fill:url(#Svg9_boru-govde_00000035495810868709354330000012204718276924884917_);" points="
			37.8,10.2 42.3,34.4 18.2,34.4 24,10.2 		"/>
		
			<line id="Svg9_DepoCikisHat2_00000163064325609796160020000017893809617909762473_" class="Svg9_st5" x1="30.8" y1="10.2" x2="30.8" y2="31.4"/>
	</g>
	
		<linearGradient id="Svg9_SVGID_00000106864705030329598820000012380451015425311135_" gradientUnits="userSpaceOnUse" x1="43.9565" y1="1147.8696" x2="43.9565" y2="1147.8696" gradientTransform="matrix(1 0 0 -1 0 1159.3044)">
		<stop  offset="0.148" style="stop-color:#839E38"/>
		<stop  offset="0.5726" style="stop-color:#A5C746"/>
		<stop  offset="0.9804" style="stop-color:#839E38"/>
	</linearGradient>
	<path style="fill:url(#Svg9_SVGID_00000106864705030329598820000012380451015425311135_);" d="M44,11.4"/>
	
		<linearGradient id="Svg9_SVGID_00000054243664207662015450000002973869620578422456_" gradientUnits="userSpaceOnUse" x1="31.3565" y1="467.9696" x2="31.3565" y2="467.9696" gradientTransform="matrix(1 0 0 -1 0 789.3043)">
		<stop  offset="9.525904e-02" style="stop-color:#B7B7B7"/>
		<stop  offset="0.4426" style="stop-color:#F2F2F2"/>
		<stop  offset="0.888" style="stop-color:#858585"/>
	</linearGradient>
	
		<path style="fill:url(#Svg9_SVGID_00000054243664207662015450000002973869620578422456_);stroke:#4E4D4D;stroke-width:10.4406;stroke-miterlimit:10;" d="
		M31.4,321.3"/>
	
		<linearGradient id="Svg9_SVGID_00000147932577662181919510000014564625595050232483_" gradientUnits="userSpaceOnUse" x1="31.7565" y1="625.4695" x2="31.7565" y2="625.4695" gradientTransform="matrix(1 0 0 -1 0 789.3043)">
		<stop  offset="9.525904e-02" style="stop-color:#B7B7B7"/>
		<stop  offset="0.4426" style="stop-color:#F2F2F2"/>
		<stop  offset="0.888" style="stop-color:#858585"/>
	</linearGradient>
	
		<path style="fill:url(#Svg9_SVGID_00000147932577662181919510000014564625595050232483_);stroke:#4E4D4D;stroke-width:10.4406;stroke-miterlimit:10;" d="
		M31.8,163.8"/>

<rect id="movingRect" x="20" y="391" width="20" height="50" fill="transparent">
    <animate attributeName="y" from="390" to="-50" dur="3s" repeatCount="indefinite" />
</rect>
<rect id="movingRect" x="20" y="391" width="20" height="50" fill="transparent">
    <animate attributeName="y" from="390" to="-50" begin="2s" dur="3s" repeatCount="indefinite" />
</rect>
<rect id="movingRect" x="20" y="391" width="20" height="50" fill="transparent">
    <animate attributeName="y" from="390" to="-50" begin="1s" dur="3s" repeatCount="indefinite" />
</rect>

</g>

</svg>
